<svg width="45" height="40" viewBox="0 0 45 40" fill="none" xmlns="http://www.w3.org/2000/svg">
<path d="M35.6411 32.7627H8.48887C7.09627 32.7627 5.87002 31.8452 5.47714 30.5091L4.57031 27.4258H39.5597L38.6529 30.5091C38.2598 31.8452 37.0337 32.7627 35.6411 32.7627Z" fill="#FFD71A"/>
<path d="M6.90425 30.5091L5.99743 27.4258H4.57031L5.47714 30.5091C5.87012 31.8452 7.09627 32.7626 8.48887 32.7626H9.91589C8.52339 32.7627 7.29724 31.8452 6.90425 30.5091Z" fill="#FFB31A"/>
<path d="M22.0648 0.410156C19.8975 0.410156 18.1406 2.16708 18.1406 4.33429V8.25843H25.9889V4.33429C25.989 2.16708 24.2321 0.410156 22.0648 0.410156Z" fill="#FF8353"/>
<path d="M22.7783 0.477094C22.5468 0.434498 22.3086 0.411133 22.0648 0.411133C19.8975 0.411133 18.1406 2.16806 18.1406 4.33527V8.2594H19.5676V4.33527C19.5677 2.4119 20.952 0.812767 22.7783 0.477094Z" fill="#FF5A52"/>
<path d="M22.0654 5.66797C13.4149 5.66797 6.40234 12.6909 6.40234 21.3541C6.40234 22.3228 6.48052 23.2183 6.6484 24.1384L37.4811 24.1459C37.6436 23.2399 37.7284 22.3069 37.7284 21.354C37.7285 12.691 30.7159 5.66797 22.0654 5.66797Z" fill="#FFD71A"/>
<path d="M7.82936 21.3561C7.82936 12.9324 14.4597 6.0605 22.7789 5.68685C22.5422 5.67617 22.3046 5.66992 22.0653 5.66992C13.4148 5.66992 6.40234 12.6928 6.40234 21.3561C6.40234 22.3247 6.48052 23.2202 6.64831 24.1403L37.481 24.1478C37.481 24.1478 37.481 24.1476 37.4811 24.1474L8.07532 24.1402C7.90754 23.2202 7.82936 22.3247 7.82936 21.3561Z" fill="#FFB31A"/>
<path d="M39.5069 22.0869H4.62179C3.15871 22.0869 1.97266 23.273 1.97266 24.736C1.97266 26.1991 3.15871 27.3852 4.62179 27.3852H39.5069C40.97 27.3852 42.156 26.1991 42.156 24.736C42.156 23.273 40.97 22.0869 39.5069 22.0869Z" fill="#FF8353"/>
<path d="M3.39968 24.7351C3.39968 23.272 4.58573 22.0859 6.04881 22.0859H4.62179C3.15871 22.0859 1.97266 23.272 1.97266 24.7351C1.97266 26.1982 3.15871 27.3842 4.62179 27.3842H6.04881C4.58573 27.3841 3.39968 26.1981 3.39968 24.7351Z" fill="#FF5A52"/>
<path d="M37.7866 39.5947C41.7699 39.5947 44.999 36.3656 44.999 32.3823C44.999 28.399 41.7699 25.1699 37.7866 25.1699C33.8033 25.1699 30.5742 28.399 30.5742 32.3823C30.5742 36.3656 33.8033 39.5947 37.7866 39.5947Z" fill="#58DC72"/>
<path d="M32.0013 32.3823C32.0013 28.6398 34.8519 25.5638 38.5002 25.2053C38.2654 25.1822 38.0275 25.1699 37.7866 25.1699C33.8034 25.1699 30.5742 28.3991 30.5742 32.3823C30.5742 36.3656 33.8034 39.5947 37.7866 39.5947C38.0275 39.5947 38.2654 39.5823 38.5002 39.5593C34.8519 39.201 32.0013 36.1248 32.0013 32.3823Z" fill="#25B77E"/>
<path d="M41.902 31.9065H38.2563V28.2608C38.2563 27.9981 38.0433 27.7852 37.7806 27.7852C37.5179 27.7852 37.3049 27.9981 37.3049 28.2608V31.9065H33.6593C33.3966 31.9065 33.1836 32.1195 33.1836 32.3822C33.1836 32.6449 33.3966 32.8578 33.6593 32.8578H37.3049V36.5035C37.3049 36.7662 37.5179 36.9792 37.7806 36.9792C38.0433 36.9792 38.2563 36.7662 38.2563 36.5035V32.8578H41.902C42.1647 32.8578 42.3776 32.6449 42.3776 32.3822C42.3776 32.1195 42.1647 31.9065 41.902 31.9065Z" fill="white"/>
<path d="M10.7556 5.24289C10.5912 5.24289 10.4313 5.1576 10.3432 5.00491L8.75522 2.25462C8.62388 2.02712 8.70176 1.73616 8.92936 1.60481C9.15695 1.47346 9.44782 1.55145 9.57916 1.77895L11.167 4.52933C11.3547 4.83433 11.1096 5.25173 10.7556 5.24289Z" fill="#FF5A52"/>
<path d="M3.22572 12.7689C3.14505 12.7689 3.06331 12.7483 2.98831 12.7051L0.23793 11.1172C0.0104299 10.9858 -0.0675509 10.6949 0.0637952 10.4674C0.195045 10.2399 0.486007 10.162 0.713603 10.2932L3.46399 11.8811C3.88553 12.1055 3.69283 12.7867 3.22572 12.7689Z" fill="#FF5A52"/>
<path d="M40.9049 12.7689C40.4377 12.7867 40.2453 12.1052 40.6667 11.8812L43.4171 10.2933C43.6448 10.1619 43.9355 10.2399 44.0669 10.4674C44.1982 10.6949 44.1203 10.9859 43.8927 11.1172L41.1423 12.7051C41.0674 12.7483 40.9856 12.7689 40.9049 12.7689Z" fill="#FF5A52"/>
<path d="M33.3787 5.24298C33.0245 5.25173 32.7794 4.83433 32.9672 4.52933L34.5551 1.77895C34.6864 1.55145 34.9773 1.47346 35.2049 1.60481C35.4324 1.73616 35.5104 2.02712 35.3791 2.25462L33.7912 5.005C33.703 5.1577 33.5431 5.24298 33.3787 5.24298Z" fill="#FF5A52"/>
</svg>
