<svg width="24" height="24" viewBox="0 0 24 24" fill="none" xmlns="http://www.w3.org/2000/svg">
<path d="M6.68991 16.0578C3.90274 15.44 3.15572 11.658 5.47065 10.0069C6.07162 9.5639 5.53065 8.80767 5.59445 8.20628C5.59462 7.4518 5.84518 6.71872 6.30683 6.12196C6.76848 5.52521 7.41512 5.09854 8.14536 4.90884C8.79545 4.76613 8.74146 3.98334 9.04948 3.52845C7.54579 1.67501 4.44283 2.7267 4.36405 5.11143C4.35436 5.39075 4.26897 5.66219 4.11699 5.89674C3.96502 6.1313 3.75218 6.32016 3.5012 6.44315C3.18304 6.60358 2.90024 6.82613 2.6695 7.09765C2.43876 7.36918 2.26476 7.68418 2.15776 8.02406C2.05076 8.36394 2.01294 8.72181 2.04652 9.07655C2.08011 9.43128 2.18442 9.7757 2.3533 10.0895C2.5034 10.3605 2.56629 10.6713 2.53341 10.9794C2.50053 11.2875 2.37348 11.578 2.16955 11.8113C0.66236 13.4259 1.87277 16.2278 4.07892 16.2304C4.69934 16.2401 5.2967 16.4671 5.76702 16.8719C6.8849 17.8472 8.77184 19.6929 9.28953 21.456H10.1148C9.92348 19.7716 8.44548 17.6409 7.78149 16.7593C7.50975 16.4062 7.12397 16.1583 6.68991 16.0578Z" fill="#50C889"/>
<path d="M21.8266 11.815C21.6222 11.5803 21.4953 11.2883 21.4631 10.9788C21.4308 10.6693 21.4949 10.3574 21.6465 10.0856C21.767 9.8619 21.8542 9.62179 21.9053 9.37288C22.0299 8.79816 21.9591 8.19832 21.7043 7.66834C21.4495 7.13835 21.0252 6.7085 20.4986 6.44685C20.2468 6.32347 20.0333 6.13409 19.8807 5.89891C19.7281 5.66373 19.6421 5.39155 19.632 5.11137C19.6093 4.58111 19.4279 4.06988 19.1113 3.64391C18.7947 3.21793 18.3575 2.89684 17.8563 2.72223C17.3551 2.54762 16.813 2.52752 16.3002 2.66456C15.7875 2.80159 15.3277 3.08943 14.9804 3.4908C15.1323 3.75119 15.2472 4.03149 15.3217 4.3236C15.3566 4.46524 15.4296 4.59464 15.5328 4.69779C15.6359 4.80094 15.7653 4.87392 15.9069 4.90883C16.3483 5.0256 16.7619 5.22947 17.1233 5.50845C17.4848 5.78744 17.7867 6.1359 18.0115 6.53332C18.2363 6.93075 18.3793 7.36912 18.4321 7.82263C18.4849 8.27614 18.4465 8.73564 18.3191 9.17408C18.272 9.32306 18.2719 9.48292 18.3189 9.63193C18.3659 9.78094 18.4576 9.91185 18.5817 10.0069C19.1054 10.3903 19.5085 10.9156 19.7433 11.5208C19.978 12.126 20.0346 12.7857 19.9064 13.4221C19.7782 14.0584 19.4705 14.6447 19.0197 15.1118C18.5689 15.5788 17.9939 15.9071 17.3625 16.0578C16.9284 16.1582 16.5426 16.4062 16.2708 16.7593C15.6068 17.6409 14.1288 19.7716 13.9375 21.4559H14.7065C15.2242 19.6928 17.1111 17.8472 18.229 16.8718C18.6994 16.4671 19.2967 16.2401 19.9171 16.2303C20.4225 16.2169 20.9135 16.0594 21.3323 15.7762C21.7511 15.493 22.0802 15.096 22.2808 14.632C22.4815 14.168 22.5454 13.6563 22.4649 13.1572C22.3844 12.6581 22.1629 12.1924 21.8266 11.815Z" fill="#50C889"/>
<path d="M17.1913 15.3297C17.6833 15.2115 18.1312 14.955 18.4822 14.5906C18.8332 14.2263 19.0727 13.7691 19.1724 13.2731C19.2722 12.7771 19.228 12.2629 19.0452 11.7911C18.8623 11.3194 18.5484 10.9097 18.1404 10.6105C17.8915 10.4243 17.7061 10.166 17.6095 9.87058C17.5128 9.5752 17.5095 9.2572 17.6002 8.95992C17.6998 8.61828 17.73 8.26016 17.689 7.90667C17.648 7.55318 17.5366 7.21147 17.3615 6.90171C17.1863 6.59194 16.9509 6.32038 16.6691 6.10304C16.3873 5.8857 16.0649 5.72698 15.7208 5.63624C15.4499 5.5661 15.2026 5.42477 15.0048 5.22689C14.8069 5.02901 14.6655 4.7818 14.5954 4.51089C13.9216 1.88447 10.1312 1.89214 9.4598 4.51084C9.38967 4.78176 9.24833 5.02899 9.05045 5.22688C8.85257 5.42476 8.60535 5.56611 8.33443 5.63626C7.99034 5.72702 7.66791 5.88575 7.38614 6.10309C7.10437 6.32043 6.86897 6.59199 6.6938 6.90175C6.51864 7.2115 6.40727 7.5532 6.36625 7.90668C6.32524 8.26016 6.35541 8.61828 6.45498 8.95992C6.54563 9.25719 6.54241 9.57518 6.44576 9.87055C6.34911 10.1659 6.16373 10.4243 5.91488 10.6105C5.51179 10.9126 5.20253 11.3227 5.02292 11.7933C4.8433 12.2639 4.80068 12.7758 4.89998 13.2696C4.99929 13.7634 5.23647 14.219 5.58404 14.5836C5.93161 14.9482 6.37536 15.2069 6.86389 15.3297C7.46813 15.4687 8.00522 15.8135 8.38317 16.305C9.26475 17.4792 10.7015 19.64 10.8703 21.4556H11.6543V16.0087L8.83336 14.5982C8.7462 14.5528 8.68032 14.4751 8.6499 14.3816C8.61947 14.2882 8.62694 14.1865 8.67068 14.0986C8.71443 14.0106 8.79096 13.9433 8.88381 13.9111C8.97667 13.879 9.07843 13.8846 9.16721 13.9267L11.6543 15.1684V12.9814L8.83336 11.5709C8.74622 11.5255 8.68037 11.4477 8.64996 11.3543C8.61955 11.2609 8.62702 11.1592 8.67076 11.0713C8.7145 10.9833 8.79101 10.916 8.88385 10.8838C8.97669 10.8517 9.07844 10.8573 9.16721 10.8993L11.6543 12.141V9.95029L8.83336 8.53978C8.74625 8.49468 8.6804 8.4171 8.65003 8.32383C8.61967 8.23055 8.62724 8.12907 8.67111 8.04133C8.71497 7.95359 8.79161 7.88664 8.88445 7.85496C8.97729 7.82328 9.07886 7.82941 9.16721 7.87203L11.6543 9.11373V5.93637C11.6561 5.83805 11.6964 5.74437 11.7666 5.67548C11.8367 5.60658 11.9311 5.56798 12.0295 5.56797C12.1278 5.56797 12.2222 5.60657 12.2924 5.67546C12.3625 5.74435 12.4028 5.83803 12.4046 5.93634V9.11372L14.888 7.87203C14.9763 7.82946 15.0777 7.82323 15.1706 7.85469C15.2634 7.88615 15.3402 7.95277 15.3844 8.04025C15.4286 8.12772 15.4368 8.22905 15.4071 8.32247C15.3774 8.41588 15.3122 8.49391 15.2256 8.53978L12.4046 9.95027V12.141L14.888 10.8993C14.9767 10.8572 15.0784 10.8515 15.1712 10.8835C15.2641 10.9154 15.3408 10.9824 15.3849 11.0701C15.429 11.1578 15.4371 11.2594 15.4073 11.3529C15.3775 11.4465 15.3123 11.5247 15.2256 11.5708L12.4046 12.9814V15.1684L14.888 13.9267C14.9767 13.8845 15.0784 13.8788 15.1713 13.9106C15.2643 13.9425 15.341 14.0096 15.3851 14.0973C15.4293 14.1851 15.4373 14.2867 15.4075 14.3803C15.3776 14.4739 15.3124 14.5521 15.2256 14.5982L12.4046 16.0087V21.4556H13.1849C13.3574 19.6362 14.7904 17.4792 15.672 16.305C16.0507 15.8143 16.5875 15.4697 17.1913 15.3297Z" fill="#50C889"/>
</svg>
