<svg width="18" height="19" viewBox="0 0 18 19" fill="none" xmlns="http://www.w3.org/2000/svg">
<g clip-path="url(#clip0_141_16347)">
<path d="M9 18.5C13.9706 18.5 18 14.4706 18 9.5C18 4.52944 13.9706 0.5 9 0.5C4.02944 0.5 0 4.52944 0 9.5C0 14.4706 4.02944 18.5 9 18.5Z" fill="#FFB703"/>
<path d="M8.99902 15.96C12.5668 15.96 15.459 13.0677 15.459 9.5C15.459 5.93226 12.5668 3.04004 8.99902 3.04004C5.43129 3.04004 2.53906 5.93226 2.53906 9.5C2.53906 13.0677 5.43129 15.96 8.99902 15.96Z" fill="#FFCC29"/>
<path d="M8.99902 15.959C12.5668 15.959 15.459 13.0668 15.459 9.49902C15.459 5.93129 12.5668 3.03906 8.99902 3.03906C5.43129 3.03906 2.53906 5.93129 2.53906 9.49902C2.53906 13.0668 5.43129 15.959 8.99902 15.959Z" stroke="#F99300" stroke-width="1.13625" stroke-miterlimit="10"/>
<path d="M12 16.9718C13.4768 16.3741 14.7414 15.3489 15.6317 14.0278C16.5221 12.7067 16.9977 11.1498 16.9975 9.55664" stroke="#FFD13E" stroke-width="0.68168" stroke-miterlimit="10" stroke-linecap="round"/>
<path d="M5 2.5738C6.21507 1.87032 7.59465 1.50087 8.99867 1.50294" stroke="#FFD13E" stroke-width="0.68168" stroke-miterlimit="10" stroke-linecap="round"/>
<path d="M2.27734 5.16633C2.66681 4.563 3.13553 4.01471 3.67094 3.53613" stroke="#FFD13E" stroke-width="0.68168" stroke-miterlimit="10" stroke-linecap="round"/>
<path d="M1.97704 13.3264C1.3367 12.1528 1.00205 10.8369 1.00391 9.5" stroke="#FFD13E" stroke-width="0.68168" stroke-miterlimit="10" stroke-linecap="round"/>
<path d="M10.6702 8.85603L9.09342 6.57404C9.08293 6.55874 9.06887 6.54622 9.05245 6.53758C9.03603 6.52893 9.01776 6.52441 8.99921 6.52441C8.98065 6.52441 8.96238 6.52893 8.94596 6.53758C8.92955 6.54622 8.91548 6.55874 8.90499 6.57404L7.32823 8.85603C7.31313 8.87804 7.29081 8.89409 7.26514 8.90141C7.23947 8.90873 7.21204 8.90685 7.1876 8.89611L4.95026 7.90224C4.93028 7.89346 4.90822 7.89055 4.88666 7.89385C4.86509 7.89715 4.8449 7.90651 4.82846 7.92086C4.81202 7.9352 4.79999 7.95392 4.7938 7.97484C4.7876 7.99576 4.78748 8.01801 4.79346 8.039L6.09073 12.4813C6.09766 12.5052 6.11213 12.5261 6.13197 12.541C6.15181 12.5559 6.17596 12.564 6.20077 12.564H11.798C11.8228 12.564 11.847 12.5559 11.8668 12.541C11.8866 12.5261 11.9011 12.5052 11.908 12.4813L13.2053 8.039C13.2113 8.01801 13.2112 7.99576 13.205 7.97484C13.1988 7.95392 13.1867 7.9352 13.1703 7.92086C13.1539 7.90651 13.1337 7.89715 13.1121 7.89385C13.0905 7.89055 13.0685 7.89346 13.0485 7.90224L10.8112 8.89611C10.7866 8.90674 10.7592 8.90855 10.7335 8.90125C10.7078 8.89394 10.6854 8.87796 10.6702 8.85603Z" fill="url(#paint0_linear_141_16347)"/>
</g>
<defs>
<linearGradient id="paint0_linear_141_16347" x1="8.99938" y1="6.52441" x2="8.99938" y2="12.564" gradientUnits="userSpaceOnUse">
<stop stop-color="#F9CB00"/>
<stop offset="1" stop-color="#DF8E02"/>
</linearGradient>
<clipPath id="clip0_141_16347">
<rect width="18" height="18" fill="white" transform="translate(0 0.5)"/>
</clipPath>
</defs>
</svg>
