<svg width="45" height="40" viewBox="0 0 45 40" fill="none" xmlns="http://www.w3.org/2000/svg">
<path fill-rule="evenodd" clip-rule="evenodd" d="M1.6637 17.3516H10.806C11.3816 17.3516 11.8525 16.8807 11.8525 16.3051V7.16281C11.8525 6.58722 11.3816 6.11621 10.806 6.11621H1.6637C1.08811 6.11621 0.617188 6.58722 0.617188 7.16281V16.3051C0.617188 16.8807 1.08811 17.3516 1.6637 17.3516Z" fill="#FFDC6E"/>
<path fill-rule="evenodd" clip-rule="evenodd" d="M9.85547 17.3516H10.8025C11.3781 17.3516 11.849 16.8807 11.849 16.3051V7.16281C11.849 6.58722 11.3781 6.11621 10.8025 6.11621H9.85547V17.3516Z" fill="#FFCA28"/>
<path fill-rule="evenodd" clip-rule="evenodd" d="M7.90111 10.3243V6.11621H4.5625V10.3243C4.5625 10.6557 4.79058 10.9258 5.07024 10.9258H7.39355C7.67313 10.9259 7.90111 10.6557 7.90111 10.3243Z" fill="#F7524B"/>
<path fill-rule="evenodd" clip-rule="evenodd" d="M31.9648 17.7969H36.566L38.7554 27.9192H31.9648V17.7969Z" fill="#F7524B"/>
<path fill-rule="evenodd" clip-rule="evenodd" d="M31.9648 17.7969H36.566L37.4516 21.8912L31.9648 19.8197V17.7969Z" fill="#CB413D"/>
<path fill-rule="evenodd" clip-rule="evenodd" d="M6.63672 20.9102H21.1696C22.14 20.9102 22.9338 20.1164 22.9338 19.1461C22.9338 18.1757 22.14 17.3818 21.1696 17.3818H8.40104C7.43064 17.3818 6.63672 18.1757 6.63672 19.1461V20.9102Z" fill="#404049"/>
<path fill-rule="evenodd" clip-rule="evenodd" d="M17.2978 32.791C17.2978 36.4782 14.3088 39.4673 10.6216 39.4673C6.93438 39.4673 3.94531 36.4783 3.94531 32.791H17.2978Z" fill="#404049"/>
<path fill-rule="evenodd" clip-rule="evenodd" d="M13.9518 32.791C13.9518 34.6277 12.4629 36.1165 10.6263 36.1165C8.78965 36.1165 7.30078 34.6277 7.30078 32.791H13.9518Z" fill="#F0F0FC"/>
<path fill-rule="evenodd" clip-rule="evenodd" d="M43.0908 32.791C43.0908 36.4782 40.1017 39.4673 36.4145 39.4673C32.7274 39.4673 29.7383 36.4782 29.7383 32.791H43.0908Z" fill="#404049"/>
<path fill-rule="evenodd" clip-rule="evenodd" d="M39.737 32.791C39.737 34.6277 38.2481 36.1165 36.4115 36.1165C34.5749 36.1165 33.0859 34.6277 33.0859 32.791H39.737Z" fill="#F0F0FC"/>
<path fill-rule="evenodd" clip-rule="evenodd" d="M2.64844 32.7914H21.4335V20.1748H8.95679C5.48722 20.1748 2.64844 23.0135 2.64844 26.4831V32.7914Z" fill="#F7524B"/>
<path fill-rule="evenodd" clip-rule="evenodd" d="M19.8359 28.1465H30.9546V32.7923H19.8359V28.1465Z" fill="#F7524B"/>
<path fill-rule="evenodd" clip-rule="evenodd" d="M37.6915 12.6762L32.8278 13.4145C32.3279 13.4903 31.9648 13.9127 31.9648 14.4184V18.4366L37.6915 19.3059C39.2068 19.5359 40.4687 17.8142 40.4687 15.9911C40.4687 14.2514 39.2504 12.4397 37.6915 12.6762Z" fill="#EF444E"/>
<path fill-rule="evenodd" clip-rule="evenodd" d="M37.7578 19.3143C39.2441 19.4865 40.4703 17.7881 40.4703 15.9909C40.4703 14.2754 39.2855 12.4899 37.7578 12.6675V19.3143Z" fill="#FFDC6E"/>
<path fill-rule="evenodd" clip-rule="evenodd" d="M10.6194 24.8193C15.0217 24.8193 18.5904 28.388 18.5904 32.7903H2.64844C2.64844 28.388 6.21715 24.8193 10.6194 24.8193Z" fill="#E14844"/>
<path fill-rule="evenodd" clip-rule="evenodd" d="M13.293 13.7171L17.6022 15.7683L22.9855 13.1434L26.315 15.7973L33.9284 18.0374L35.0131 16.2126C32.5414 15.3873 30.5557 14.5849 28.0742 13.5991L26.2057 11.1929C26.2057 11.1929 26.2671 8.97682 25.0048 7.81745C23.7425 6.65809 23.7347 6.62891 23.7347 6.62891C16.9461 6.88405 14.3557 10.0491 13.293 13.7171Z" fill="#FFDC6E"/>
<path fill-rule="evenodd" clip-rule="evenodd" d="M34.1427 18.3732C34.9033 18.3732 35.5236 17.7529 35.5236 16.9923C35.5236 16.2317 34.9033 15.6113 34.1427 15.6113C33.3821 15.6113 32.7617 16.2317 32.7617 16.9923C32.7617 17.7529 33.3821 18.3732 34.1427 18.3732Z" fill="#484A50"/>
<path fill-rule="evenodd" clip-rule="evenodd" d="M13.8092 18.2676L23.0572 21.4613L22.9717 29.6271H25.9714L26.2358 20.0009C26.2609 19.0903 25.7391 18.3081 24.9085 17.9344L13.5869 12.8418L12.5906 15.0566C12.0428 16.2745 12.5466 17.8318 13.8092 18.2676Z" fill="#484A50"/>
<path fill-rule="evenodd" clip-rule="evenodd" d="M22.9655 29.2227L22.9532 30.2633C22.9429 31.1399 23.692 31.8501 24.5687 31.8359L25.7689 31.8163L27.2319 31.8069C27.8614 31.8029 28.3714 31.2862 28.3675 30.6568L28.3664 30.5033C28.3622 29.839 27.852 29.2906 27.2056 29.2227H25.9553H22.9655Z" fill="#FFDC6E"/>
<path fill-rule="evenodd" clip-rule="evenodd" d="M25.2812 31.8243L25.7675 31.8163L27.2305 31.8069C27.86 31.8029 28.37 31.2862 28.366 30.6568L28.365 30.5033C28.3608 29.839 27.8506 29.2906 27.2041 29.2227H25.9539H25.2813V31.8243H25.2812Z" fill="#FFCA28"/>
<path fill-rule="evenodd" clip-rule="evenodd" d="M36.4123 24.8193C40.8145 24.8193 44.3833 28.388 44.3833 32.7903H28.4414C28.4414 28.388 32.0101 24.8193 36.4123 24.8193Z" fill="#E14844"/>
<path fill-rule="evenodd" clip-rule="evenodd" d="M10.626 24.8193C15.0283 24.8193 18.597 28.388 18.597 32.7903H15.0962C14.9845 29.108 12.5296 26.0152 9.17188 24.9521C9.64332 24.8651 10.1293 24.8193 10.626 24.8193Z" fill="#CB413D"/>
<path fill-rule="evenodd" clip-rule="evenodd" d="M36.4112 24.8193C40.8134 24.8193 44.3822 28.388 44.3822 32.7903H40.8814C40.7697 29.108 38.3147 26.0152 34.957 24.9521C35.4286 24.8651 35.9145 24.8193 36.4112 24.8193Z" fill="#CB413D"/>
<path fill-rule="evenodd" clip-rule="evenodd" d="M34.1418 15.6113C34.9045 15.6113 35.5227 16.2296 35.5227 16.9922C35.5227 17.7548 34.9045 18.373 34.1418 18.373C34.0478 18.373 33.956 18.3636 33.8672 18.3457C34.4982 18.2183 34.9734 17.6608 34.9734 16.9922C34.9734 16.3236 34.4982 15.766 33.8672 15.6387C33.9559 15.6207 34.0478 15.6113 34.1418 15.6113Z" fill="#404049"/>
<path fill-rule="evenodd" clip-rule="evenodd" d="M17.9012 15.6205L24.12 18.4178C24.9506 18.7915 25.4692 19.5737 25.4473 20.4844L25.237 29.2198H25.9851L26.2383 20.001C26.2587 19.1615 25.8194 18.4311 25.0999 18.0295C25.0876 18.0227 25.0753 18.0159 25.063 18.0093H25.0629C25.0506 18.0027 25.0381 17.9961 25.0256 17.9897C25.0131 17.9833 25.0005 17.977 24.9878 17.9707C24.9751 17.9645 24.9624 17.9583 24.9496 17.9523C24.9367 17.9462 24.9238 17.9403 24.9109 17.9344L13.5894 12.8418L13.2773 13.5355L17.9012 15.6205Z" fill="#404049"/>
<path fill-rule="evenodd" clip-rule="evenodd" d="M17.6016 8.08578C18.9842 7.51168 20.695 7.14816 22.8153 7.06845C23.1499 8.24592 24.0856 9.43622 25.0987 10.1141C25.3057 10.9328 25.2863 11.6324 25.2863 11.6324L27.1548 14.0386C29.0845 14.8052 31.0095 15.5787 32.969 16.2668C33.1175 16.0271 33.3374 15.8362 33.599 15.7238C31.7402 15.0628 29.9108 14.3273 28.0777 13.5991L26.2091 11.1929C26.2091 11.1929 26.2277 10.5233 26.0348 9.72758C25.8766 9.07578 25.5767 8.33952 25.0083 7.81745C23.746 6.65809 23.7382 6.62891 23.7382 6.62891C23.6701 6.63146 23.6026 6.63436 23.5354 6.63743C21.0155 6.75521 19.0848 7.28061 17.6016 8.08578Z" fill="#FFCA28"/>
<path fill-rule="evenodd" clip-rule="evenodd" d="M28.6021 1.58008C30.7086 1.78495 32.2503 3.65878 32.0454 5.76534C31.8406 7.87199 29.9667 9.41368 27.8602 9.20881C25.7535 9.00393 24.2118 7.13011 24.4167 5.02346L28.2312 5.39444L28.6021 1.58008Z" fill="#F6DCCD"/>
<path fill-rule="evenodd" clip-rule="evenodd" d="M28.7004 0.557338C30.9292 0.774076 32.6591 2.46448 33.0197 4.56998C33.0749 4.89237 32.9851 5.19322 32.7624 5.43281C32.5397 5.6724 32.2461 5.78367 31.9205 5.75203L29.2407 5.49143C28.6841 5.43729 28.186 5.84712 28.1318 6.40373L27.8713 9.08299C27.8396 9.40871 27.6736 9.67555 27.3955 9.84799C27.1175 10.0204 26.8047 10.0505 26.4988 9.93412C24.5025 9.17431 23.1776 7.15133 23.3942 4.92287C23.654 2.25222 26.0297 0.297621 28.7004 0.557338Z" fill="#E14844"/>
<path fill-rule="evenodd" clip-rule="evenodd" d="M28.7012 0.557333C30.93 0.774072 32.6599 2.46447 33.0205 4.56998C33.0757 4.89236 32.9859 5.19321 32.7632 5.4328C32.5692 5.64145 32.3214 5.75281 32.0455 5.75712C32.0458 5.73471 32.0464 5.71229 32.0464 5.68979C32.0464 3.06854 29.9215 0.943701 27.3003 0.943701C26.7762 0.943701 26.2721 1.02887 25.8008 1.18566C26.6485 0.695146 27.652 0.455292 28.7012 0.557333Z" fill="#CB413D"/>
</svg>
