<svg width="32" height="32" viewBox="0 0 32 32" fill="none" xmlns="http://www.w3.org/2000/svg">
<path d="M23.4989 17.5523L22.5358 14.7435C22.5055 14.6554 22.4563 14.577 22.3941 14.5105C22.3508 15.1586 21.8276 15.6884 21.163 15.7224C20.9986 15.7306 20.8368 15.7349 20.6819 15.7349H20.6672C20.2252 15.7348 19.8052 15.7023 19.4064 15.6432C19.4045 15.7248 19.4171 15.808 19.4477 15.8891C19.5745 16.2251 19.9497 16.3945 20.286 16.2677V16.2674L21.5227 15.8L24.4573 24.3584C24.9653 23.8031 25.6072 23.3812 26.3396 23.1329C26.8105 22.9733 27.2998 22.892 27.793 22.892C29.3642 22.892 30.792 23.7023 31.6098 24.9867C32.0963 24.9634 32.2209 24.6785 31.4391 23.6598C30.1785 22.0171 28.425 21.6986 27.1917 21.7151C27.1143 21.5065 27.0343 21.2884 26.9509 21.0579C26.1952 18.9684 24.4979 17.9732 23.4989 17.5523Z" fill="#4CBA81"/>
<path d="M17.6015 4.66469C17.6015 4.67341 17.6018 4.68238 17.6026 4.6924C17.6359 5.32179 17.7791 5.7602 17.7812 6.1951C17.7817 6.41938 17.7384 6.64326 17.6164 6.86976C17.6045 6.89187 17.5854 6.91086 17.5629 6.92283C17.2049 7.11433 16.8202 7.17443 16.4289 7.17443C16.087 7.17417 15.738 7.12955 15.3857 7.0835C15.0569 7.0407 14.7667 6.97305 14.5078 6.88094C14.9054 7.39533 15.4757 7.78131 16.1583 7.94016C17.7324 8.30676 19.3054 7.32781 19.6724 5.75382C19.8344 5.05744 19.7328 4.36131 19.4331 3.76965C18.9091 3.83392 18.2037 3.9644 17.8478 4.23929C17.6853 4.36405 17.603 4.49518 17.6015 4.66469Z" fill="#4CBA81"/>
<path d="M12.9548 10.7922L12.9541 10.7904L12.9485 10.7785C12.8045 10.4622 12.7925 10.1086 12.9144 9.78338C13.0363 9.45815 13.2779 9.19965 13.594 9.05603C13.7647 8.97811 13.9458 8.93895 14.1321 8.93895C14.6411 8.93895 15.1061 9.23816 15.3167 9.70129L15.3231 9.71417C15.3327 9.73381 15.3487 9.76543 15.3711 9.80719C15.4163 9.89253 15.4927 10.0285 15.5988 10.1941C15.723 10.3884 15.9027 10.646 16.1364 10.926C16.3709 9.69648 15.8766 8.34039 14.845 8.08346C13.7344 7.8065 12.1245 8.40973 11.4695 10.3144C10.5842 12.939 10.3938 14.6473 10.7303 17.5373C11.0556 19.2116 12.0382 19.6845 13.0282 19.7992C13.0326 19.8 13.0368 19.8013 13.0412 19.8019L17.9745 20.5689L19.8224 25.2531C20.0747 25.8926 20.6873 26.2829 21.3355 26.2829C21.5341 26.2829 21.7361 26.2463 21.932 26.169C22.7672 25.8394 23.1773 24.8949 22.8479 24.0597L20.6579 18.5089C20.4464 17.9732 19.9638 17.5872 19.3951 17.4988L15.3077 16.863C15.2865 15.9038 15.3921 14.9105 15.5432 13.964C15.2443 13.7291 14.9796 13.4898 14.7493 13.2597C13.6511 12.1663 13.0983 11.0947 12.9548 10.7922Z" fill="#4CBA81"/>
<path d="M20.6654 15.474H20.6801C20.8348 15.474 20.9906 15.4697 21.1478 15.4617C21.7219 15.4323 22.1635 14.9436 22.1342 14.3696C22.105 13.7955 21.6158 13.354 21.0421 13.3832C20.9176 13.3896 20.797 13.3926 20.6801 13.3926C18.6861 13.3883 17.3316 12.5143 16.3976 11.5977C15.9365 11.1408 15.5968 10.6768 15.3782 10.3348C15.2687 10.1638 15.1895 10.0231 15.1397 9.93019C15.115 9.88362 15.0973 9.84901 15.0873 9.82794C15.083 9.81935 15.08 9.81298 15.078 9.80934C14.8398 9.28611 14.2231 9.05493 13.7 9.29313C13.1766 9.53094 12.9456 10.1478 13.1835 10.6711C13.2181 10.7428 13.7416 11.8916 14.9319 13.0758C16.1094 14.2533 18.025 15.4738 20.6654 15.474Z" fill="#4CBA81"/>
<path d="M9.60498 19.0179V10.9171C9.60498 10.5337 9.29419 10.2228 8.91081 10.2228H0.694173C0.310791 10.2229 0 10.5338 0 10.9172V19.0181C0 19.4016 0.310791 19.7124 0.694173 19.7124H8.91081C9.29419 19.7124 9.60498 19.4016 9.60498 19.0179Z" fill="#4CBA81"/>
<path d="M12.1957 26.174C11.5083 24.1469 9.30809 23.0607 7.28073 23.7481C5.25363 24.4354 4.16735 26.636 4.85476 28.6631C5.54204 30.6902 7.74242 31.7765 9.76978 31.0892C11.7969 30.4018 12.883 28.2011 12.1957 26.174ZM9.01681 28.8686C8.21596 29.1403 7.34642 28.7108 7.07505 27.9102C6.80368 27.1094 7.23285 26.2399 8.03344 25.9685C8.83429 25.6969 9.70383 26.1263 9.9752 26.9269C10.247 27.7277 9.81779 28.597 9.01681 28.8686Z" fill="#4CBA81"/>
<path d="M25.7808 17.3338C26.8763 17.3338 26.8763 13.366 25.7808 13.366C24.6851 13.366 23.7969 14.2541 23.7969 15.3499C23.7969 16.4456 24.6851 17.3338 25.7808 17.3338Z" fill="#4CBA81"/>
<path d="M23.3177 26.7376H15.0232C14.3061 25.2908 14.0594 23.8139 13.9777 22.8531C14.1907 22.788 14.3465 22.5921 14.3465 22.3578V20.9267C14.3465 20.6394 14.1135 20.4064 13.8262 20.4064H3.22364C2.93627 20.4064 2.70327 20.6394 2.70327 20.9267V22.3578C2.70327 22.6451 2.93627 22.8781 3.22364 22.8781H3.28101C2.71589 24.2648 1.84375 26.6685 1.84375 28.2987H4.0868C3.89166 27.3252 4.02046 26.3201 4.46719 25.4151C5.00252 24.331 5.92774 23.5199 7.07255 23.1319C7.54388 22.9719 8.03277 22.8911 8.52621 22.8911C10.4667 22.8911 12.1891 24.1262 12.8124 25.9651C13.0764 26.7437 13.1142 27.5451 12.9634 28.2987H13.8773H16.0238H23.3545C23.2506 27.7805 23.2385 27.2538 23.3177 26.7376Z" fill="#4CBA81"/>
<path d="M26.5464 23.748C24.5193 24.4353 23.433 26.6359 24.1204 28.663C24.8077 30.6901 27.008 31.7764 29.0354 31.0891C31.0625 30.4018 32.1488 28.2012 31.4614 26.1741C30.7741 24.147 28.5737 23.0607 26.5464 23.748ZM28.2826 28.8687C27.4817 29.1403 26.6122 28.7109 26.3408 27.9103C26.0694 27.1095 26.4986 26.2399 27.2992 25.9686C28.1 25.6969 28.9696 26.1264 29.241 26.9269C29.5126 27.7278 29.0834 28.5971 28.2826 28.8687Z" fill="#4CBA81"/>
<path d="M19.7592 3.47387C19.7037 3.07878 19.5789 2.70255 19.3959 2.35911C18.8988 1.42648 17.9757 0.74024 16.8482 0.592715C16.6995 0.573201 16.5517 0.563965 16.4056 0.563965C16.4055 0.563965 16.4053 0.563965 16.4051 0.563965C14.7329 0.563965 13.2784 1.80492 13.0562 3.50861C13.037 3.65678 13.0273 3.80405 13.0273 3.94936C13.0273 4.15048 13.0453 4.34835 13.0799 4.5418C13.2083 5.26264 13.4253 5.78028 13.7849 6.14194C14.1442 6.50333 14.659 6.72501 15.4216 6.82518C15.7731 6.87123 16.1124 6.91403 16.431 6.91364C16.783 6.91364 17.1078 6.86226 17.4069 6.71148C17.4933 6.53742 17.5226 6.3761 17.5231 6.19475C17.5252 5.82269 17.3819 5.36724 17.345 4.70689C17.3439 4.69284 17.3437 4.67866 17.3434 4.66435C17.3424 4.39649 17.4909 4.18131 17.6932 4.03132C17.8964 3.87859 18.1586 3.77373 18.4349 3.69464C18.9126 3.55882 19.4379 3.50366 19.7592 3.47387Z" fill="#4CBA81"/>
</svg>
