<svg width="14" height="14" viewBox="0 0 14 14" fill="none" xmlns="http://www.w3.org/2000/svg">
<g clip-path="url(#clip0_141_16365)">
<path d="M10.0756 4.10358L11.1014 1.20703H6.99798H2.89453L3.92039 4.10358H10.0756Z" fill="#00D2FF"/>
<path d="M7 4.10352H14L7 12.7932V4.10352Z" fill="#00D2FF"/>
<path d="M7 1.20703V4.10358H0L2.89655 1.20703H7Z" fill="#18BDF6"/>
<path d="M7 4.10352H0L7 12.7932V4.10352Z" fill="#18BDF6"/>
<path d="M7 1.20703V4.10358H14L11.1034 1.20703H7Z" fill="#18BDF6"/>
<path d="M6.99879 1.20703L3.92188 4.10358H6.99879H10.0757L6.99879 1.20703Z" fill="#00D2FF"/>
<path d="M3.92188 4.10352L6.99947 12.7932L10.0771 4.10352H3.92188Z" fill="#28AFF0"/>
<path d="M11.104 1.20703L10.0781 4.10358H14.0005L11.104 1.20703Z" fill="#59E2FF"/>
<path d="M2.89655 1.20703L3.92241 4.10358H0L2.89655 1.20703Z" fill="#28AFF0"/>
<path d="M11.6531 2.55457C11.2365 2.45957 10.9085 2.13161 10.8135 1.71495C10.8063 1.68356 10.7648 1.68356 10.7577 1.71495C10.6627 2.13156 10.3347 2.45955 9.91807 2.55457C9.88668 2.56173 9.88668 2.60327 9.91807 2.6104C10.3347 2.70539 10.6627 3.03333 10.7577 3.44999C10.7648 3.48138 10.8064 3.48138 10.8135 3.44999C10.9085 3.03333 11.2365 2.70539 11.6531 2.6104C11.6845 2.60327 11.6845 2.56173 11.6531 2.55457Z" fill="white"/>
<path d="M10.5741 4.30599C10.2518 4.22251 9.99798 3.96871 9.91448 3.64635C9.90608 3.61398 9.86419 3.61398 9.8558 3.64635C9.77232 3.96871 9.51851 4.22248 9.19616 4.30599C9.16378 4.31439 9.16378 4.35628 9.19616 4.36467C9.51851 4.44815 9.77229 4.70193 9.8558 5.02431C9.86419 5.05669 9.90608 5.05669 9.91448 5.02431C9.99796 4.70196 10.2518 4.44818 10.5741 4.36467C10.6065 4.35628 10.6065 4.31436 10.5741 4.30599Z" fill="white"/>
</g>
<defs>
<clipPath id="clip0_141_16365">
<rect width="14" height="14" fill="white"/>
</clipPath>
</defs>
</svg>
