<svg width="24" height="20" viewBox="0 0 24 20" fill="none" xmlns="http://www.w3.org/2000/svg">
<path d="M14.2527 3.27413C13.4654 3.48534 12.7836 3.95587 12.2939 4.57994L11.0457 2.55401C11.3914 2.3908 11.7755 2.30436 12.1787 2.30436C13.0141 2.30436 13.7534 2.67883 14.2527 3.27413ZM15.2033 4.10947C14.1951 4.10947 13.3213 4.66638 12.8508 5.4825L13.859 7.1244L16.8163 4.64716C16.365 4.30152 15.8082 4.10947 15.2033 4.10947ZM13.1197 7.74847L11.8235 8.83347H2.87472L7.40672 1.48824C7.8292 0.796889 8.83736 0.796889 9.25984 1.48824L13.1197 7.74847ZM7.4355 7.6141C7.4355 7.34522 7.22429 7.13401 6.95542 7.13401C6.69615 7.13401 6.47533 7.34522 6.47533 7.6141C6.47533 7.8733 6.69615 8.09418 6.95542 8.09418C7.22429 8.09418 7.4355 7.8733 7.4355 7.6141ZM8.80853 4.71438C8.80853 4.45512 8.59732 4.2343 8.32845 4.2343C8.06924 4.2343 7.84836 4.45512 7.84836 4.71438C7.84836 4.98325 8.06924 5.19446 8.32845 5.19446C8.59732 5.19446 8.80853 4.98325 8.80853 4.71438ZM10.1912 7.6141C10.1912 7.34522 9.97035 7.13401 9.71109 7.13401C9.44227 7.13401 9.231 7.34522 9.231 7.6141C9.231 7.8733 9.44227 8.09418 9.71109 8.09418C9.97035 8.09418 10.1912 7.8733 10.1912 7.6141ZM13.3213 8.83347H15.1744L15.3281 7.15318C14.6175 7.74847 13.9166 8.3246 13.3213 8.83347ZM16.221 7.91175L16.1442 8.83347H16.9891L16.221 7.91175ZM16.9603 7.28761L18.2566 8.83347H21.1467C21.3003 8.4686 21.4059 8.08457 21.4731 7.69087L16.9603 7.28761ZM20.705 3.69661C20.4842 3.33174 19.9849 3.25491 19.6584 3.52378C18.9575 4.11908 17.6997 5.16563 16.3746 6.26984L21.5595 6.7307C21.5692 5.68416 21.2811 4.62794 20.705 3.69661ZM23.9887 10.7922C23.6047 13.0582 21.9244 15.0458 19.4664 16.3804H4.53578C2.07777 15.0458 0.397476 13.0582 0.0134464 10.7922C-0.0826061 10.2642 0.34948 9.79363 0.877559 9.79363H23.1246C23.6527 9.79363 24.0752 10.2642 23.9887 10.7922ZM21.3291 12.3669C21.1178 12.2037 20.8202 12.2325 20.6474 12.4341C19.9849 13.2503 19.0247 13.9704 17.8821 14.5272C17.642 14.6521 17.5461 14.9402 17.6613 15.1706C17.7477 15.3434 17.9109 15.4394 18.0934 15.4394C18.1605 15.4394 18.2373 15.4298 18.3046 15.3914C19.572 14.7769 20.6378 13.9608 21.3867 13.0486C21.5595 12.8469 21.5307 12.5397 21.3291 12.3669ZM5.4864 17.3406H18.5158V18.2527C18.5158 18.6848 18.1701 19.0304 17.738 19.0304H6.26413C5.83204 19.0304 5.4864 18.6848 5.4864 18.2527V17.3406Z" fill="url(#paint0_linear_91_15441)"/>
<defs>
<linearGradient id="paint0_linear_91_15441" x1="12" y1="0.969727" x2="12" y2="19.0304" gradientUnits="userSpaceOnUse">
<stop stop-color="#E89643"/>
<stop offset="1" stop-color="#38BA77"/>
</linearGradient>
</defs>
</svg>
