<svg width="24" height="24" viewBox="0 0 24 24" fill="none" xmlns="http://www.w3.org/2000/svg">
<g clip-path="url(#clip0_91_15388)">
<path d="M22.9261 4.26797C24.3556 3.31594 24.3537 1.09298 22.9261 0.142216C22.595 -0.0785653 22.1501 0.0105912 21.93 0.341717C21.7099 0.672186 21.799 1.11309 22.1295 1.33317C22.7042 1.7168 22.7066 2.56041 22.1295 2.94568C20.7015 3.89672 20.7018 6.12535 22.1294 7.07612C22.4568 7.29498 22.9042 7.20864 23.1256 6.87662C23.3457 6.54685 23.2565 6.10056 22.9261 5.88048C22.3504 5.49526 22.3504 4.65324 22.9261 4.26797Z" fill="#EFD4B8"/>
<path d="M19.4183 4.26799C20.8478 3.31595 20.8459 1.093 19.4183 0.142229C19.0871 -0.0785531 18.6429 0.0105565 18.4221 0.341729C18.202 0.672198 18.2912 1.11311 18.6216 1.33318C19.1964 1.71681 19.1988 2.56042 18.6216 2.94569C17.1937 3.89674 17.194 6.12537 18.6216 7.07613C18.949 7.29499 19.3964 7.20865 19.6178 6.87663C19.8378 6.54687 19.7487 6.10057 19.4183 5.88049C18.8426 5.49527 18.8426 4.65325 19.4183 4.26799Z" fill="#EFD4B8"/>
<path d="M1.86749 4.26796C2.53869 3.82096 2.93975 2.94566 2.93975 2.13941C2.93975 1.33316 2.53869 0.589206 1.86749 0.142252C1.53641 -0.0785769 1.09147 0.0105795 0.87139 0.341705C0.651312 0.672175 0.740421 1.11308 1.07089 1.33316C1.34511 1.51621 1.50214 1.80965 1.50214 2.13941C1.50214 2.46918 1.34511 2.76257 1.07084 2.94562C-0.357112 3.89667 -0.356784 6.12529 1.07084 7.07606C1.39822 7.29492 1.84564 7.20858 2.06699 6.87656C2.28707 6.5468 2.19796 6.1005 1.86749 5.88042C1.29181 5.49525 1.29181 4.65323 1.86749 4.26796Z" fill="#EFD4B8"/>
<path d="M5.37529 4.26797C6.80484 3.31594 6.80292 1.09298 5.37529 0.142216C5.04421 -0.0785653 4.59928 0.0105912 4.3792 0.341717C4.15912 0.672186 4.24823 1.11309 4.5787 1.33317C5.15343 1.7168 5.15582 2.56041 4.5787 2.94568C3.15069 3.89672 3.15102 6.12535 4.57865 7.07612C4.90603 7.29498 5.35345 7.20864 5.57479 6.87662C5.79487 6.54685 5.70576 6.10056 5.37529 5.88048C4.79962 5.49526 4.79962 4.65324 5.37529 4.26797Z" fill="#EFD4B8"/>
<path d="M15.4603 1.95125C15.3945 1.62354 15.1066 1.38232 14.772 1.38232H9.15574C8.82119 1.38232 8.53324 1.62354 8.46742 1.95125L7.45703 7.12991H16.4707L15.4603 1.95125Z" fill="#ECAA68"/>
<path d="M23.1985 8.53418C13.6349 8.53418 10.583 8.53418 0.733298 8.53418C0.345266 8.53418 0.03125 8.8482 0.03125 9.23623C0.03125 12.6914 2.5378 15.4924 5.71148 16.9943C7.53291 17.8562 9.67097 18.3627 11.9659 18.3627C14.2608 18.3627 16.399 17.8562 18.2204 16.9943C21.3768 15.5003 23.9005 12.7 23.9005 9.23623C23.9005 8.8482 23.5865 8.53418 23.1985 8.53418Z" fill="#D4771A"/>
<path d="M19.1097 21.4595L18.499 18.4058C16.5651 19.2684 14.3377 19.7668 11.9625 19.7668C9.58722 19.7668 7.35972 19.2685 5.42584 18.4058L4.81525 21.4595C4.55373 22.7613 5.5524 23.9791 6.88023 23.9791H17.0447C18.3725 23.979 19.3712 22.7613 19.1097 21.4595Z" fill="#9E5913"/>
</g>
<defs>
<clipPath id="clip0_91_15388">
<rect width="24" height="24" fill="white"/>
</clipPath>
</defs>
</svg>
