<svg width="48" height="48" viewBox="0 0 48 48" fill="none" xmlns="http://www.w3.org/2000/svg">
<rect width="48" height="48" rx="8.87617" fill="#E3FCF0"/>
<g clip-path="url(#clip0_0_1)">
<path d="M34.7081 25.3284C34.6313 25.2896 34.5543 25.2703 34.4768 25.2703C34.3098 25.2703 34.1626 25.3344 34.0345 25.4629L32.8028 26.6943C32.6877 26.8098 32.6299 26.9508 32.6299 27.1177V32.0048C32.6299 32.8517 32.3291 33.5761 31.7258 34.1793C31.1229 34.7822 30.398 35.0837 29.5513 35.0837H13.5418C12.695 35.0837 11.9701 34.7822 11.3673 34.1793C10.7643 33.5762 10.4629 32.8517 10.4629 32.0048V15.9956C10.4629 15.149 10.7643 14.4242 11.3673 13.8212C11.9701 13.2182 12.695 12.9168 13.5418 12.9168H29.5514C29.8337 12.9168 30.1223 12.9553 30.4173 13.0323C30.4943 13.0578 30.552 13.0708 30.59 13.0708C30.757 13.0708 30.9046 13.0069 31.0328 12.8786L31.9757 11.9357C32.1295 11.782 32.1874 11.5959 32.1486 11.378C32.1101 11.1727 31.9946 11.0251 31.8021 10.9354C31.1098 10.6151 30.359 10.4542 29.5509 10.4542H13.5418C12.0152 10.4542 10.7099 10.9962 9.62588 12.0802C8.542 13.1644 8 14.4695 8 15.9961V32.0057C8 33.5321 8.542 34.8373 9.62594 35.9213C10.71 37.0056 12.0153 37.5476 13.5418 37.5476H29.5513C31.0776 37.5476 32.3831 37.0056 33.4671 35.9213C34.5512 34.8373 35.0937 33.5321 35.0937 32.0057V25.8863C35.0935 25.6171 34.9646 25.4312 34.7081 25.3284Z" fill="url(#paint0_linear_0_1)"/>
<path d="M39.5384 14.2833L37.4216 12.1664C37.1137 11.8586 36.7479 11.7047 36.3244 11.7047C35.9015 11.7047 35.5354 11.8586 35.2278 12.1664L22.7779 24.6163L17.7175 19.5555C17.4095 19.2475 17.0438 19.0938 16.6207 19.0938C16.1974 19.0938 15.8318 19.2475 15.5238 19.5555L13.4072 21.6721C13.0994 21.98 12.9453 22.3457 12.9453 22.7692C12.9453 23.1924 13.0994 23.558 13.4072 23.866L21.6813 32.1401C21.9893 32.4481 22.355 32.6018 22.7781 32.6018C23.2013 32.6018 23.567 32.4482 23.875 32.1401L39.5382 16.4769C39.8459 16.1691 40.0002 15.8033 40.0002 15.3801C40.0002 14.9568 39.8463 14.5911 39.5384 14.2833Z" fill="url(#paint1_linear_0_1)"/>
</g>
<defs>
<linearGradient id="paint0_linear_0_1" x1="21.5468" y1="10.4542" x2="21.5468" y2="37.5476" gradientUnits="userSpaceOnUse">
<stop stop-color="#A7DCC1"/>
<stop offset="1" stop-color="#40A06F"/>
</linearGradient>
<linearGradient id="paint1_linear_0_1" x1="26.4727" y1="11.7047" x2="26.4727" y2="32.6018" gradientUnits="userSpaceOnUse">
<stop stop-color="#A7DCC1"/>
<stop offset="1" stop-color="#40A06F"/>
</linearGradient>
<clipPath id="clip0_0_1">
<rect width="31.9999" height="32" fill="white" transform="translate(8 8)"/>
</clipPath>
</defs>
</svg>
