<svg width="45" height="46" viewBox="0 0 45 46" fill="none" xmlns="http://www.w3.org/2000/svg">
<path d="M41.4844 20.1875H3.51562C3.1273 20.1875 2.8125 20.5023 2.8125 20.8906V23.7031C2.8125 24.0915 3.1273 24.4062 3.51562 24.4062H41.4844C41.8727 24.4062 42.1875 24.0915 42.1875 23.7031V20.8906C42.1875 20.5023 41.8727 20.1875 41.4844 20.1875Z" fill="#A26A55"/>
<path d="M34.5023 27.2188H10.4977C10.0969 27.2188 9.73125 27.0711 9.55547 26.832L7.73438 24.4062H37.2656L35.4445 26.832C35.2687 27.0711 34.9031 27.2188 34.5023 27.2188Z" fill="#894C3D"/>
<path d="M20.3906 42.6875V27.2188H24.6094V42.6875" fill="#A26A55"/>
<path d="M30.2344 4.01562L24.6094 20.1875H9.14062L14.7656 4.01562H30.2344Z" fill="#EDAE65"/>
<path d="M17.8651 14.5639C17.8229 14.5639 17.7807 14.5639 17.7385 14.5498C17.5486 14.5146 17.3799 14.4021 17.2744 14.2334L15.9315 12.124C15.7205 11.7936 15.819 11.3646 16.1494 11.1537C16.4799 10.9428 16.9088 11.0412 17.1197 11.3717L18.0549 12.8482L23.2018 9.07246C23.5182 8.84043 23.9541 8.91074 24.1861 9.22715C24.4182 9.54356 24.3479 9.97949 24.0315 10.2115L18.2799 14.4303C18.1604 14.5217 18.0127 14.5639 17.8651 14.5639Z" fill="#536882"/>
<path d="M35.8594 20.1875H24.6094L30.2344 4.01562L35.8594 20.1875Z" fill="#D88852"/>
</svg>
