<svg width="24" height="24" viewBox="0 0 24 24" fill="none" xmlns="http://www.w3.org/2000/svg">
<path fill-rule="evenodd" clip-rule="evenodd" d="M19.3844 23.2974H4.60798C3.11942 23.2974 1.90625 22.0857 1.90625 20.596V10.4199C1.90625 10.0055 2.24337 9.66992 2.65644 9.66992H21.3359C21.7513 9.66992 22.0861 10.0055 22.0861 10.4199V20.596C22.0861 22.0857 20.8753 23.2974 19.3844 23.2974Z" fill="#E4404D"/>
<path fill-rule="evenodd" clip-rule="evenodd" d="M19.3844 23.2964H4.60798C3.11942 23.2964 1.90625 22.0847 1.90625 20.5951V12.0635H20.8205V21.4036C20.8205 22.0865 20.566 22.7108 20.1469 23.1869C19.9049 23.2581 19.6491 23.2964 19.3844 23.2964Z" fill="#FD4755"/>
<path fill-rule="evenodd" clip-rule="evenodd" d="M22.3148 11.1704H1.68383C1.27072 11.1704 0.933594 10.8343 0.933594 10.4205V6.72624C0.933594 5.2366 2.14677 4.02441 3.63533 4.02441H20.3633C21.8542 4.02441 23.065 5.2366 23.065 6.72624V10.4205C23.065 10.8343 22.7303 11.1704 22.3148 11.1704Z" fill="#E4404D"/>
<path fill-rule="evenodd" clip-rule="evenodd" d="M22.1158 11.1704H1.68383C1.27072 11.1704 0.933594 10.8343 0.933594 10.4205V6.72624C0.933594 6.15395 1.1128 5.62271 1.41777 5.18532C1.79628 4.98305 2.22809 4.86816 2.68611 4.86816H19.4141C20.905 4.86816 22.1158 6.08035 22.1158 7.56999V11.1704Z" fill="#FD4755"/>
<path fill-rule="evenodd" clip-rule="evenodd" d="M11.2509 5.08071L8.20735 1.97833C7.91771 1.68255 7.9201 1.20771 8.21687 0.917599C8.51125 0.627958 8.98609 0.63199 9.27807 0.927818L12.0107 3.71275L14.7955 0.980036C15.0899 0.689693 15.5647 0.694427 15.8544 0.990255C16.144 1.28608 16.1416 1.76088 15.8448 2.05052L12.751 5.08732V23.2966H11.2509V5.08071Z" fill="#FFD266"/>
</svg>
