<svg width="38" height="38" viewBox="0 0 38 38" fill="none" xmlns="http://www.w3.org/2000/svg">
<path d="M9.13672 9.95312L9.95734 9.1325L12.8587 12.0338L12.038 12.8544L9.13672 9.95312Z" fill="#F1BF8C"/>
<path d="M7.39062 8.21484L8.21137 7.39409L9.37191 8.55463L8.55116 9.37538L7.39062 8.21484Z" fill="#F1BF8C"/>
<path d="M6.81641 13.7754H12.62V14.9361H6.81641V13.7754Z" fill="#F1BF8C"/>
<path d="M6.23828 16.6777H31.774V34.5527C31.774 35.5784 30.9425 36.4099 29.9169 36.4099H8.09543C7.06975 36.4099 6.23828 35.5784 6.23828 34.5527V16.6777Z" fill="#D24034"/>
<path d="M31.774 16.6777H8.09543C7.06975 16.6777 6.23828 17.5092 6.23828 18.5349V22.7715C6.23828 30.3039 13.2536 36.4099 21.9079 36.4099H29.9168C30.9425 36.4099 31.774 35.5784 31.774 34.5527V16.6777Z" fill="#D4771A"/>
<path d="M16.6797 16.6777H21.3237V36.4099H16.6797V16.6777Z" fill="#EECC61"/>
<path d="M16.4156 20.9096L15.519 18.999L14.6223 20.9096L12.6172 21.216L14.0681 22.7029L13.7257 24.8026L15.519 23.8113L16.6797 24.4526V20.9496L16.4156 20.9096Z" fill="#F3A845"/>
<path d="M26.5463 20.1602L27.443 22.0707L29.4481 22.3771L27.9972 23.864L28.3396 25.9637L26.5463 24.9725L24.753 25.9637L25.0954 23.864L23.6445 22.3771L25.6497 22.0707L26.5463 20.1602Z" fill="#F3A845"/>
<path d="M31.1908 28.2852L30.2942 30.1957L28.2891 30.5021L29.74 31.989L29.3975 34.0887L31.1908 33.0975L31.7712 33.4184V29.5213L31.1908 28.2852Z" fill="#F3A845"/>
<path d="M9.72042 28.7609L7.71529 28.4545L6.81864 26.5439L6.23828 27.7801V31.6772L6.81864 31.3563L8.61194 32.3475L8.26953 30.2478L9.72042 28.7609Z" fill="#F3A845"/>
<path d="M31.7695 16.6777V25.9634L33.4078 25.9632C34.7883 25.9631 35.686 24.5102 35.0686 23.2755L31.7695 16.6777Z" fill="#9E5913"/>
<path d="M2.93751 23.2755C2.32011 24.5102 3.21778 25.9631 4.59826 25.9632C5.09394 25.9633 5.61907 25.9634 6.23661 25.9634V16.6777L2.93751 23.2755Z" fill="#9E5913"/>
<path d="M34.091 12.6151C34.091 12.0921 34.2368 11.5794 34.5118 11.1346C34.7868 10.6897 35.1802 10.3302 35.6481 10.0963L36.4124 9.71331L35.6481 9.33143C35.1801 9.09743 34.7866 8.73774 34.5116 8.29266C34.2365 7.84759 34.0909 7.33471 34.091 6.81152C34.091 7.33471 33.9454 7.84759 33.6704 8.29266C33.3953 8.73774 33.0018 9.09743 32.5339 9.33143L31.7695 9.71331L32.5339 10.0958C33.0018 10.3297 33.3953 10.6893 33.6703 11.1342C33.9453 11.5792 34.091 12.092 34.091 12.6151Z" fill="#F3A845"/>
<path d="M35.6498 9.33085C35.1818 9.09705 34.7883 8.73749 34.5132 8.29249C34.2382 7.84749 34.0926 7.33466 34.0927 6.81152C34.0918 7.23358 33.9959 7.65002 33.8122 8.02998C33.6284 8.40994 33.3615 8.74367 33.0312 9.00643C33.1473 9.42703 33.3475 9.8197 33.6197 10.1607C33.892 10.5016 34.2306 10.7838 34.615 10.9901C34.8803 10.6104 35.2357 10.3026 35.6492 10.094L36.4142 9.71331L35.6498 9.33085Z" fill="#EECC61"/>
<path d="M3.91518 9.71373C3.91527 9.19072 4.06098 8.67807 4.336 8.2332C4.61101 7.78834 5.00447 7.42884 5.47228 7.19498L6.23661 6.81194L5.47228 6.43007C5.00433 6.19606 4.6108 5.83637 4.33578 5.39129C4.06076 4.94622 3.91512 4.43335 3.91518 3.91016C3.91524 4.43335 3.7696 4.94622 3.49458 5.39129C3.21956 5.83637 2.82602 6.19606 2.35808 6.43007L1.59375 6.81194L2.35808 7.1944C2.82598 7.4283 3.21949 7.78789 3.49451 8.23287C3.76953 8.67785 3.9152 9.19062 3.91518 9.71373Z" fill="#F3A845"/>
<path d="M5.47013 6.42949C5.00215 6.19569 4.60857 5.83612 4.33353 5.39112C4.05849 4.94612 3.91288 4.43329 3.91304 3.91016C3.91214 4.33221 3.81626 4.74866 3.63251 5.12862C3.44876 5.50857 3.18185 5.8423 2.85156 6.10507C2.96761 6.52566 3.16782 6.91834 3.44005 7.2593C3.71229 7.60027 4.05089 7.88244 4.43536 8.08873C4.70064 7.70907 5.05599 7.40118 5.46955 7.19266L6.23446 6.81194L5.47013 6.42949Z" fill="#EECC61"/>
<g clip-path="url(#clip0_91_15302)">
<path d="M19.0067 13.195C22.2119 13.195 24.8103 10.5967 24.8103 7.39146C24.8103 4.18624 22.2119 1.58789 19.0067 1.58789C15.8015 1.58789 13.2031 4.18624 13.2031 7.39146C13.2031 10.5967 15.8015 13.195 19.0067 13.195Z" fill="#FFB703"/>
<path d="M19.0016 11.5579C21.3022 11.5579 23.1672 9.69284 23.1672 7.39221C23.1672 5.09159 21.3022 3.22656 19.0016 3.22656C16.701 3.22656 14.8359 5.09159 14.8359 7.39221C14.8359 9.69284 16.701 11.5579 19.0016 11.5579Z" fill="#FFCC29"/>
<path d="M19.0016 11.5569C21.3022 11.5569 23.1672 9.69186 23.1672 7.39124C23.1672 5.09061 21.3022 3.22559 19.0016 3.22559C16.701 3.22559 14.8359 5.09061 14.8359 7.39124C14.8359 9.69186 16.701 11.5569 19.0016 11.5569Z" stroke="#F99300" stroke-width="0.732701" stroke-miterlimit="10"/>
<path d="M20.9414 12.2113C21.8937 11.8258 22.7092 11.1648 23.2833 10.3129C23.8575 9.46098 24.1641 8.45701 24.164 7.42969" stroke="#FFD13E" stroke-width="0.439575" stroke-miterlimit="10" stroke-linecap="round"/>
<path d="M16.4258 2.92589C17.2093 2.47226 18.0989 2.23402 19.0043 2.23536" stroke="#FFD13E" stroke-width="0.439575" stroke-miterlimit="10" stroke-linecap="round"/>
<path d="M14.6719 4.59809C14.923 4.20904 15.2253 3.85548 15.5705 3.54688" stroke="#FFD13E" stroke-width="0.439575" stroke-miterlimit="10" stroke-linecap="round"/>
<path d="M14.4713 9.85903C14.0584 9.10224 13.8426 8.2537 13.8438 7.3916" stroke="#FFD13E" stroke-width="0.439575" stroke-miterlimit="10" stroke-linecap="round"/>
<path d="M20.0815 6.97618L19.0647 5.50465C19.0579 5.49479 19.0489 5.48672 19.0383 5.48114C19.0277 5.47557 19.0159 5.47266 19.0039 5.47266C18.992 5.47266 18.9802 5.47557 18.9696 5.48114C18.959 5.48672 18.9499 5.49479 18.9432 5.50465L17.9264 6.97618C17.9167 6.99037 17.9023 7.00072 17.8857 7.00544C17.8692 7.01016 17.8515 7.00895 17.8357 7.00202L16.393 6.36114C16.3801 6.35548 16.3659 6.3536 16.352 6.35573C16.3381 6.35785 16.3251 6.36389 16.3145 6.37314C16.3039 6.38239 16.2961 6.39446 16.2921 6.40795C16.2881 6.42144 16.288 6.43579 16.2919 6.44932L17.1284 9.31393C17.1329 9.32929 17.1422 9.34279 17.155 9.3524C17.1678 9.36201 17.1834 9.3672 17.1994 9.3672H20.8087C20.8247 9.3672 20.8403 9.36201 20.8531 9.3524C20.8659 9.34279 20.8752 9.32929 20.8797 9.31393L21.7162 6.44932C21.7201 6.43579 21.72 6.42144 21.716 6.40795C21.712 6.39446 21.7042 6.38239 21.6936 6.37314C21.683 6.36389 21.67 6.35785 21.6561 6.35573C21.6422 6.3536 21.628 6.35548 21.6151 6.36114L20.1724 7.00202C20.1566 7.00888 20.1389 7.01005 20.1223 7.00534C20.1057 7.00062 20.0913 6.99032 20.0815 6.97618Z" fill="url(#paint0_linear_91_15302)"/>
</g>
<path d="M25.1445 12.0352L28.0459 9.13384L28.8665 9.95446L25.9652 12.8558L25.1445 12.0352Z" fill="#F1BF8C"/>
<path d="M28.625 8.55469L29.7855 7.39415L30.6063 8.2149L29.4457 9.37544L28.625 8.55469Z" fill="#F1BF8C"/>
<path d="M25.3906 13.7754H31.1942V14.9361H25.3906V13.7754Z" fill="#F1BF8C"/>
<defs>
<linearGradient id="paint0_linear_91_15302" x1="19.0041" y1="5.47266" x2="19.0041" y2="9.3672" gradientUnits="userSpaceOnUse">
<stop stop-color="#F9CB00"/>
<stop offset="1" stop-color="#DF8E02"/>
</linearGradient>
<clipPath id="clip0_91_15302">
<rect width="11.6071" height="11.6071" fill="white" transform="translate(13.2031 1.58789)"/>
</clipPath>
</defs>
</svg>
