<svg width="20" height="14" viewBox="0 0 20 14" fill="none" xmlns="http://www.w3.org/2000/svg">
<path d="M13.2813 9.5C13.2813 9.65452 13.2354 9.80556 13.1496 9.93404C13.0638 10.0625 12.9417 10.1627 12.799 10.2218C12.6562 10.2809 12.4992 10.2964 12.3476 10.2662C12.1961 10.2361 12.0569 10.1617 11.9476 10.0524C11.8383 9.94317 11.7639 9.80396 11.7338 9.65241C11.7036 9.50087 11.7191 9.34378 11.7782 9.20103C11.8374 9.05827 11.9375 8.93626 12.066 8.85041C12.1945 8.76457 12.3455 8.71875 12.5 8.71875C12.7072 8.71875 12.9059 8.80106 13.0524 8.94757C13.199 9.09408 13.2813 9.2928 13.2813 9.5ZM8.28127 4.5C8.28127 4.34548 8.23545 4.19444 8.14961 4.06596C8.06376 3.93748 7.94175 3.83735 7.79899 3.77822C7.65624 3.71909 7.49915 3.70362 7.34761 3.73376C7.19606 3.76391 7.05685 3.83831 6.94759 3.94757C6.83833 4.05683 6.76393 4.19604 6.73378 4.34759C6.70364 4.49913 6.71911 4.65622 6.77824 4.79897C6.83737 4.94173 6.9375 5.06374 7.06598 5.14959C7.19446 5.23543 7.3455 5.28125 7.50002 5.28125C7.70722 5.28125 7.90593 5.19894 8.05245 5.05243C8.19896 4.90591 8.28127 4.7072 8.28127 4.5ZM16.875 7C16.8756 7.50611 17.0513 7.99642 17.3724 8.38766C17.6934 8.77889 18.14 9.04693 18.6363 9.14625C18.8461 9.18991 19.0343 9.30484 19.1689 9.47152C19.3036 9.6382 19.3764 9.84635 19.375 10.0606V12C19.3745 12.4142 19.2097 12.8114 18.9168 13.1043C18.6239 13.3972 18.2268 13.562 17.8125 13.5625H2.18752C1.77327 13.562 1.37613 13.3972 1.08321 13.1043C0.790295 12.8114 0.625516 12.4142 0.62502 12V10.0606C0.623628 9.84635 0.696448 9.6382 0.831112 9.47152C0.965777 9.30484 1.15398 9.18991 1.36377 9.14625C1.86099 9.0483 2.30878 8.78074 2.63064 8.38929C2.9525 7.99784 3.12846 7.50678 3.12846 7C3.12846 6.49322 2.9525 6.00216 2.63064 5.61071C2.30878 5.21926 1.86099 4.9517 1.36377 4.85375C1.15398 4.81009 0.965777 4.69516 0.831112 4.52848C0.696448 4.3618 0.623628 4.15365 0.62502 3.93937V2C0.625516 1.58575 0.790295 1.18861 1.08321 0.895694C1.37613 0.602776 1.77327 0.437996 2.18752 0.4375H17.8125C18.2268 0.437996 18.6239 0.602776 18.9168 0.895694C19.2097 1.18861 19.3745 1.58575 19.375 2V3.93937C19.3764 4.15365 19.3036 4.3618 19.1689 4.52848C19.0343 4.69516 18.8461 4.81009 18.6363 4.85375C18.14 4.95307 17.6934 5.22111 17.3724 5.61234C17.0513 6.00358 16.8756 6.49389 16.875 7ZM7.50002 6.21875C7.83996 6.21875 8.17226 6.11795 8.45491 5.92909C8.73755 5.74023 8.95785 5.4718 9.08794 5.15774C9.21803 4.84368 9.25206 4.49809 9.18574 4.16469C9.11943 3.83128 8.95573 3.52503 8.71536 3.28466C8.47499 3.04429 8.16874 2.88059 7.83533 2.81428C7.50193 2.74796 7.15634 2.78199 6.84228 2.91208C6.52822 3.04217 6.25979 3.26247 6.07093 3.54511C5.88207 3.82776 5.78127 4.16006 5.78127 4.5C5.78177 4.95569 5.96301 5.39257 6.28523 5.71479C6.60745 6.03701 7.04433 6.21825 7.50002 6.21875ZM7.51908 10.1441L13.1441 4.51906C13.1876 4.47552 13.2222 4.42383 13.2457 4.36694C13.2693 4.31005 13.2814 4.24908 13.2814 4.1875C13.2814 4.12592 13.2693 4.06495 13.2457 4.00806C13.2222 3.95117 13.1876 3.89948 13.1441 3.85594C13.1005 3.8124 13.0488 3.77786 12.992 3.75429C12.9351 3.73073 12.8741 3.7186 12.8125 3.7186C12.7509 3.7186 12.69 3.73073 12.6331 3.75429C12.5762 3.77786 12.5245 3.8124 12.481 3.85594L6.85596 9.48094C6.81242 9.52448 6.77788 9.57617 6.75431 9.63306C6.73075 9.68995 6.71862 9.75092 6.71862 9.8125C6.71862 9.87408 6.73075 9.93505 6.75431 9.99194C6.77788 10.0488 6.81242 10.1005 6.85596 10.1441C6.94389 10.232 7.06316 10.2814 7.18752 10.2814C7.2491 10.2814 7.31007 10.2693 7.36696 10.2457C7.42385 10.2221 7.47554 10.1876 7.51908 10.1441ZM14.2188 9.5C14.2188 9.16006 14.118 8.82776 13.9291 8.54511C13.7402 8.26247 13.4718 8.04217 13.1578 7.91208C12.8437 7.78199 12.4981 7.74796 12.1647 7.81428C11.8313 7.88059 11.5251 8.04429 11.2847 8.28466C11.0443 8.52503 10.8806 8.83128 10.8143 9.16469C10.748 9.49809 10.782 9.84368 10.9121 10.1577C11.0422 10.4718 11.2625 10.7402 11.5451 10.9291C11.8278 11.1179 12.1601 11.2188 12.5 11.2188C12.9557 11.2183 13.3926 11.037 13.7148 10.7148C14.037 10.3926 14.2183 9.95569 14.2188 9.5Z" fill="#E89643"/>
</svg>
