<svg width="14" height="14" viewBox="0 0 14 14" fill="none" xmlns="http://www.w3.org/2000/svg">
<g clip-path="url(#clip0_91_21305)">
<g filter="url(#filter0_d_91_21305)">
<path d="M7.51513 0.635688L9.3669 4.38773L13.5075 4.9894C13.9787 5.05784 14.1668 5.6369 13.8259 5.96926L10.8297 8.88978L11.537 13.0137C11.6175 13.4829 11.1249 13.8408 10.7035 13.6192L6.99998 11.6722L3.2965 13.6192C2.87508 13.8408 2.38251 13.4829 2.46301 13.0137L3.17031 8.88978L0.174102 5.96923C-0.166846 5.63687 0.0213058 5.05787 0.492491 4.98937L4.63311 4.3877L6.48485 0.635688C6.69559 0.208717 7.30439 0.208717 7.51513 0.635688Z" fill="url(#paint0_linear_91_21305)"/>
</g>
<path d="M9.36684 4.38777L7.51513 0.635735C7.40977 0.422263 7.20489 0.315514 7 0.315514V7.41909L9.36684 4.38777Z" fill="url(#paint1_linear_91_21305)"/>
<path d="M10.8297 8.88978L13.8259 5.96921C13.9941 5.80525 14.0333 5.58134 13.9735 5.38824L7 7.41902L10.8297 8.88978Z" fill="url(#paint2_linear_91_21305)"/>
<path d="M11.3102 13.5742L7 7.41904V11.6722L10.7035 13.6193C10.915 13.7304 11.1443 13.6957 11.3102 13.5742Z" fill="url(#paint3_linear_91_21305)"/>
<path d="M7.00271 7.41904L3.17302 8.8898L2.46575 13.0137C2.42564 13.2475 2.52785 13.4536 2.69254 13.5742L7.00271 7.41904Z" fill="url(#paint4_linear_91_21305)"/>
<path d="M0.0273438 5.3883L7.00085 7.41906L4.63398 4.38774L0.493361 4.98944C0.254624 5.02411 0.0887576 5.18995 0.0273438 5.3883Z" fill="url(#paint5_linear_91_21305)"/>
<path d="M3.17015 8.88981L0.173938 5.96926C0.0057472 5.80531 -0.0334909 5.58139 0.0263096 5.38829L6.99981 7.41905L3.17015 8.88981Z" fill="url(#paint6_linear_91_21305)"/>
</g>
<defs>
<filter id="filter0_d_91_21305" x="-12" y="-7.68454" width="38" height="37.371" filterUnits="userSpaceOnUse" color-interpolation-filters="sRGB">
<feFlood flood-opacity="0" result="BackgroundImageFix"/>
<feColorMatrix in="SourceAlpha" type="matrix" values="0 0 0 0 0 0 0 0 0 0 0 0 0 0 0 0 0 0 127 0" result="hardAlpha"/>
<feOffset dy="4"/>
<feGaussianBlur stdDeviation="6"/>
<feComposite in2="hardAlpha" operator="out"/>
<feColorMatrix type="matrix" values="0 0 0 0 1 0 0 0 0 1 0 0 0 0 1 0 0 0 0.12 0"/>
<feBlend mode="normal" in2="BackgroundImageFix" result="effect1_dropShadow_91_21305"/>
<feBlend mode="normal" in="SourceGraphic" in2="effect1_dropShadow_91_21305" result="shape"/>
</filter>
<linearGradient id="paint0_linear_91_21305" x1="7.00021" y1="1.87484" x2="7.00021" y2="17.3222" gradientUnits="userSpaceOnUse">
<stop stop-color="#FFCF95"/>
<stop offset="0.427" stop-color="#FFC954"/>
<stop offset="1" stop-color="#FFC200"/>
</linearGradient>
<linearGradient id="paint1_linear_91_21305" x1="10.6286" y1="3.86693" x2="5.95892" y2="3.86693" gradientUnits="userSpaceOnUse">
<stop stop-color="#FFC200" stop-opacity="0"/>
<stop offset="0.203" stop-color="#FFBB00" stop-opacity="0.203"/>
<stop offset="0.499" stop-color="#FFA700" stop-opacity="0.499"/>
<stop offset="0.852" stop-color="#FF8800" stop-opacity="0.852"/>
<stop offset="1" stop-color="#FF7800"/>
</linearGradient>
<linearGradient id="paint2_linear_91_21305" x1="11.4264" y1="11.0215" x2="10.1897" y2="4.9313" gradientUnits="userSpaceOnUse">
<stop stop-color="#FFC200" stop-opacity="0"/>
<stop offset="0.203" stop-color="#FFBB00" stop-opacity="0.203"/>
<stop offset="0.499" stop-color="#FFA700" stop-opacity="0.499"/>
<stop offset="0.852" stop-color="#FF8800" stop-opacity="0.852"/>
<stop offset="1" stop-color="#FF7800"/>
</linearGradient>
<linearGradient id="paint3_linear_91_21305" x1="5.42984" y1="14.222" x2="10.2734" y2="9.37847" gradientUnits="userSpaceOnUse">
<stop stop-color="#FFC200" stop-opacity="0"/>
<stop offset="0.203" stop-color="#FFBB00" stop-opacity="0.203"/>
<stop offset="0.499" stop-color="#FFA700" stop-opacity="0.499"/>
<stop offset="0.852" stop-color="#FF8800" stop-opacity="0.852"/>
<stop offset="1" stop-color="#FF7800"/>
</linearGradient>
<linearGradient id="paint4_linear_91_21305" x1="1.97855" y1="8.09687" x2="5.54864" y2="11.0836" gradientUnits="userSpaceOnUse">
<stop stop-color="#FFC200" stop-opacity="0"/>
<stop offset="0.203" stop-color="#FFBB00" stop-opacity="0.203"/>
<stop offset="0.499" stop-color="#FFA700" stop-opacity="0.499"/>
<stop offset="0.852" stop-color="#FF8800" stop-opacity="0.852"/>
<stop offset="1" stop-color="#FF7800"/>
</linearGradient>
<linearGradient id="paint5_linear_91_21305" x1="4.65296" y1="3.17016" x2="3.20625" y2="7.27694" gradientUnits="userSpaceOnUse">
<stop stop-color="#FFC200" stop-opacity="0"/>
<stop offset="0.203" stop-color="#FFBB00" stop-opacity="0.203"/>
<stop offset="0.499" stop-color="#FFA700" stop-opacity="0.499"/>
<stop offset="0.852" stop-color="#FF8800" stop-opacity="0.852"/>
<stop offset="1" stop-color="#FF7800"/>
</linearGradient>
<linearGradient id="paint6_linear_91_21305" x1="10.0977" y1="3.59901" x2="-0.530941" y2="8.12581" gradientUnits="userSpaceOnUse">
<stop stop-color="#FFC200" stop-opacity="0"/>
<stop offset="0.203" stop-color="#FFBB00" stop-opacity="0.203"/>
<stop offset="0.499" stop-color="#FFA700" stop-opacity="0.499"/>
<stop offset="0.852" stop-color="#FF8800" stop-opacity="0.852"/>
<stop offset="1" stop-color="#FF7800"/>
</linearGradient>
<clipPath id="clip0_91_21305">
<rect width="14" height="14" fill="white"/>
</clipPath>
</defs>
</svg>
