<svg width="24" height="22" viewBox="0 0 24 22" fill="none" xmlns="http://www.w3.org/2000/svg">
<path d="M18.6112 4.59906C19.026 5.16147 19.1531 5.38861 18.9485 5.72928C18.9232 5.7715 18.9064 5.81831 18.8991 5.86701C18.8919 5.91572 18.8943 5.96538 18.9062 6.01316C18.9303 6.10965 18.9918 6.19262 19.0771 6.2438C19.1623 6.29499 19.2645 6.3102 19.361 6.2861C19.4574 6.26199 19.5404 6.20054 19.5916 6.11526C20.0715 5.31537 19.5965 4.67139 19.2148 4.15384C18.9639 3.8139 18.7046 3.46234 18.6356 3.04806C18.484 2.13895 19.3959 1.65866 19.4391 1.6365C19.5277 1.5917 19.5949 1.51358 19.626 1.41927C19.6571 1.32496 19.6496 1.22217 19.605 1.13344C19.5604 1.0447 19.4824 0.97727 19.3882 0.945928C19.294 0.914586 19.1912 0.921893 19.1023 0.966247C19.043 0.99591 17.652 1.70965 17.8959 3.17139C17.9944 3.76291 18.3221 4.20713 18.6112 4.59906Z" fill="#EFD4B8"/>
<path d="M11.3769 4.01028C11.7917 4.57259 11.9186 4.79973 11.7142 5.1404C11.6888 5.18263 11.6721 5.22943 11.6648 5.27814C11.6575 5.32685 11.66 5.37651 11.6719 5.42429C11.6838 5.47207 11.7051 5.51703 11.7344 5.5566C11.7637 5.59617 11.8005 5.62959 11.8427 5.65493C11.8849 5.68027 11.9318 5.69705 11.9805 5.70431C12.0292 5.71157 12.0788 5.70916 12.1266 5.69722C12.1744 5.68529 12.2193 5.66406 12.2589 5.63474C12.2985 5.60543 12.3319 5.56861 12.3573 5.52639C12.8372 4.72659 12.3622 4.08251 11.9804 3.56505C11.7296 3.22503 11.4702 2.87347 11.4012 2.45928C11.2494 1.54842 12.165 1.06805 12.2049 1.04763C12.2935 1.00281 12.3608 0.924672 12.3919 0.830346C12.423 0.736021 12.4154 0.633213 12.3708 0.544478C12.3261 0.455743 12.2482 0.388325 12.1539 0.357015C12.0597 0.325705 11.9568 0.333059 11.868 0.377465C11.8087 0.407127 10.4178 1.12078 10.6614 2.58251C10.7599 3.17403 11.0877 3.61834 11.3769 4.01028Z" fill="#EFD4B8"/>
<path d="M4.14636 5.91165C4.56119 6.47396 4.68817 6.70111 4.48373 7.04187C4.4584 7.08409 4.44163 7.13089 4.43439 7.1796C4.42714 7.2283 4.42956 7.27796 4.44151 7.32573C4.45345 7.37349 4.47469 7.41844 4.504 7.45801C4.53332 7.49757 4.57014 7.53097 4.61237 7.5563C4.65459 7.58163 4.70139 7.5984 4.7501 7.60565C4.7988 7.61289 4.84845 7.61047 4.89622 7.59853C4.94399 7.58658 4.98894 7.56535 5.02851 7.53603C5.06807 7.50671 5.10147 7.46989 5.1268 7.42767C5.60672 6.62787 5.13165 5.98388 4.74997 5.46642C4.49911 5.12639 4.23975 4.77483 4.17072 4.36054C4.0192 3.45143 4.93106 2.97114 4.97418 2.94898C5.0628 2.90419 5.13004 2.82608 5.16115 2.73178C5.19227 2.63748 5.18471 2.5347 5.14014 2.44596C5.09557 2.35723 5.01763 2.28979 4.92341 2.25844C4.8292 2.22709 4.72639 2.23439 4.63754 2.27873C4.57822 2.30839 3.18726 3.02214 3.43097 4.48387C3.52948 5.0754 3.85724 5.51963 4.14636 5.91165Z" fill="#EFD4B8"/>
<path d="M14.8164 13.3704C14.9287 13.4995 15.4862 13.7586 16.431 13.7586C17.3759 13.7586 17.9334 13.4995 18.0457 13.3704C17.9334 13.2413 17.3759 12.9824 16.431 12.9824C15.4862 12.9824 14.9287 13.2413 14.8164 13.3704Z" fill="#EC8368"/>
<path d="M16.9356 14.4848C16.7689 14.5002 16.6003 14.5087 16.4333 14.5087C15.2883 14.5087 14.0562 14.1526 14.0562 13.3705C14.0562 12.9371 14.4355 12.6351 14.968 12.4514L14.8116 12.2898L13.4816 10.9155L13.4813 10.9151L13.0258 10.4443C12.2482 10.5114 11.4892 10.7185 10.7852 11.0554L16.2133 16.4836C16.9938 16.4173 17.7862 16.3212 18.5745 16.1791L16.9356 14.4848Z" fill="#EC8368"/>
<path d="M18.1289 10.8486L22.2855 15.0053C22.5407 14.8655 22.7796 14.6981 22.9981 14.5061C23.0083 14.4968 23.019 14.4881 23.0302 14.4801C23.225 14.3395 23.4233 14.1822 23.6127 14.0191C23.4546 12.2177 20.9082 11.3054 18.1289 10.8486Z" fill="#EC8368"/>
<path d="M17.3003 11.08L16.8955 10.6752C15.9126 10.5584 14.9417 10.4894 14.0742 10.4502L15.6112 12.0386L15.8313 12.2661C16.0309 12.2438 16.2314 12.2325 16.4322 12.2324C17.5772 12.2324 18.8093 12.5885 18.8093 13.3704C18.8093 13.8253 18.3912 14.1352 17.817 14.3156L19.4473 16.0008C19.8596 15.9066 20.2693 15.7992 20.6731 15.6731C20.9388 15.5896 21.2507 15.4838 21.5714 15.3514L17.3011 11.0811L17.3003 11.08Z" fill="#EC8368"/>
<path d="M13.2138 16.6332C13.8584 16.6164 14.5317 16.5936 15.2201 16.5538L10.0745 11.4082C10.0323 11.4305 9.99032 11.4527 9.95016 11.474C9.81943 11.5435 9.69766 11.6081 9.58505 11.6644C9.11098 11.8628 8.61391 12.0009 8.10547 12.0757L12.672 16.6437C12.8526 16.6401 13.0321 16.6379 13.2138 16.6332Z" fill="#EC8368"/>
<path d="M23.4854 15.0767C22.7143 15.7659 21.6397 16.1555 20.8963 16.3892C18.3341 17.189 15.5976 17.3215 13.2337 17.3831C12.4994 17.4023 11.7735 17.4119 11.0559 17.412C8.7886 17.412 6.61413 17.3159 4.56774 17.1247C3.02711 16.9923 1.58395 16.3157 0.496856 15.216C0.489075 15.2083 0.481659 15.2003 0.474609 15.1918C0.447476 15.1598 0.417984 15.1248 0.386719 15.0874V18.6428C0.386702 18.6953 0.397712 18.7472 0.419036 18.7952C1.42163 21.0506 4.30334 21.5143 7.1954 21.5143C8.29852 21.5143 9.40338 21.4467 10.4058 21.3856C11.2311 21.335 12.0106 21.2874 12.6541 21.2852C16.137 21.2731 19.8747 20.7714 21.4163 20.4189C23.0804 20.0386 23.5777 18.8327 23.598 18.7814C23.6155 18.7373 23.6246 18.6903 23.6245 18.6428V14.9731C23.5696 15.0147 23.5204 15.0512 23.4854 15.0767Z" fill="#D4401A"/>
<path d="M8.91111 16.6312C9.8 16.6561 10.7057 16.665 11.6283 16.6578L7.18951 12.2207C6.48397 12.318 5.66332 12.4025 4.75 12.4701L8.91111 16.6312Z" fill="#EC8368"/>
<path d="M3.68061 16.2106L0.909569 13.4409C0.852395 13.4947 0.798487 13.5518 0.748132 13.612C0.645424 13.7395 0.561836 13.8813 0.5 14.033C0.673711 14.2562 0.857514 14.4836 1.03588 14.6947C1.76597 15.4275 2.6793 15.951 3.68061 16.2106Z" fill="#EC8368"/>
<path d="M7.81311 16.592L3.75423 12.5347C3.70482 12.5375 3.65693 12.5406 3.60711 12.5433C2.89264 12.5578 2.18825 12.7147 1.53516 13.0047L4.93164 16.4027C5.86705 16.4853 6.82754 16.5484 7.81311 16.592Z" fill="#EC8368"/>
</svg>
