<svg width="32" height="25" viewBox="0 0 32 25" fill="none" xmlns="http://www.w3.org/2000/svg">
<path d="M19.038 23.3962L17.6313 22.4629C17.5397 22.4018 17.4647 22.319 17.413 22.2218C17.3612 22.1247 17.3343 22.0163 17.3346 21.9062V13.5962H14.668V21.9062C14.668 22.0159 14.6409 22.124 14.5892 22.2207C14.5374 22.3175 14.4626 22.4 14.3713 22.4609L12.9646 23.3962C12.8734 23.4571 12.7985 23.5396 12.7468 23.6363C12.695 23.7331 12.668 23.8411 12.668 23.9509V24.2629C12.668 24.4397 12.7382 24.6092 12.8632 24.7343C12.9883 24.8593 13.1578 24.9295 13.3346 24.9295H18.668C18.8448 24.9295 19.0143 24.8593 19.1394 24.7343C19.2644 24.6092 19.3346 24.4397 19.3346 24.2629V23.9529C19.335 23.8428 19.3081 23.7344 19.2563 23.6372C19.2045 23.5401 19.1295 23.4573 19.038 23.3962Z" fill="#50C889"/>
<path d="M24.6667 9.59619H6.66667C6.29848 9.59619 6 9.89467 6 10.2629V11.5962C6 11.9644 6.29848 12.2629 6.66667 12.2629H24.6667C25.0349 12.2629 25.3333 11.9644 25.3333 11.5962V10.2629C25.3333 9.89467 25.0349 9.59619 24.6667 9.59619Z" fill="#50C889"/>
<path d="M16.6648 2.96544V2.26278H17.3315C17.5083 2.26278 17.6779 2.19254 17.8029 2.06751C17.9279 1.94249 17.9982 1.77292 17.9982 1.59611C17.9982 1.4193 17.9279 1.24973 17.8029 1.12471C17.6779 0.999681 17.5083 0.929443 17.3315 0.929443H14.6648C14.488 0.929443 14.3185 0.999681 14.1934 1.12471C14.0684 1.24973 13.9982 1.4193 13.9982 1.59611C13.9982 1.77292 14.0684 1.94249 14.1934 2.06751C14.3185 2.19254 14.488 2.26278 14.6648 2.26278H15.3315V2.96544C13.9172 3.10917 12.5856 3.7004 11.5305 4.65313C10.4753 5.60587 9.7517 6.8704 9.46484 8.26278H22.5315C22.2447 6.8704 21.521 5.60587 20.4659 4.65313C19.4108 3.7004 18.0792 3.10917 16.6648 2.96544ZM15.1315 5.69011C14.2139 5.89493 13.3971 6.41512 12.8235 7.16011C12.7159 7.3005 12.557 7.3924 12.3816 7.41559C12.2063 7.43878 12.0289 7.39137 11.8885 7.28378C11.7481 7.17619 11.6562 7.01724 11.633 6.84189C11.6098 6.66654 11.6573 6.48916 11.7648 6.34878C12.5298 5.35514 13.619 4.6613 14.8428 4.38811C14.9283 4.36916 15.0167 4.36723 15.103 4.38243C15.1892 4.39763 15.2716 4.42968 15.3454 4.47672C15.4193 4.52377 15.4832 4.58491 15.5334 4.65664C15.5836 4.72837 15.6192 4.80929 15.6382 4.89478C15.6571 4.98027 15.6591 5.06865 15.6439 5.15489C15.6287 5.24113 15.5966 5.32352 15.5496 5.39738C15.5025 5.47123 15.4414 5.53509 15.3697 5.58532C15.2979 5.63555 15.217 5.67116 15.1315 5.69011Z" fill="#50C889"/>
<path d="M31.667 8.04886C31.5421 7.90655 31.3883 7.79256 31.2159 7.71449C31.0434 7.63642 30.8563 7.59609 30.667 7.59619H29.9476C29.6555 7.59772 29.3719 7.69517 29.1405 7.87355C28.9092 8.05194 28.7428 8.30138 28.667 8.58353L26.9423 15.0249H22.8296C22.3872 15.0253 21.9574 15.1729 21.6081 15.4445C21.2588 15.7161 21.0098 16.0962 20.9003 16.5249L20.7103 17.2629C20.6595 17.4598 20.6543 17.6658 20.6953 17.865C20.7364 18.0642 20.8224 18.2514 20.9469 18.4123C21.0714 18.5731 21.2311 18.7034 21.4136 18.793C21.5962 18.8827 21.7969 18.9294 22.0003 18.9295H22.0463L20.759 24.1015C20.7378 24.1865 20.7337 24.2749 20.7467 24.3615C20.7597 24.4481 20.7897 24.5313 20.8349 24.6064C20.8801 24.6814 20.9396 24.7468 21.0101 24.7988C21.0806 24.8508 21.1606 24.8885 21.2456 24.9095C21.2984 24.923 21.3526 24.9297 21.407 24.9295C21.5557 24.9295 21.7001 24.8797 21.8173 24.7882C21.9345 24.6966 22.0177 24.5685 22.0536 24.4242L23.4183 18.9295H28.2003L29.4176 24.4075C29.4505 24.5553 29.5327 24.6876 29.6507 24.7824C29.7687 24.8773 29.9155 24.9292 30.067 24.9295C30.1159 24.9294 30.1646 24.9241 30.2123 24.9135C30.2978 24.8946 30.3787 24.859 30.4505 24.8088C30.5222 24.7585 30.5834 24.6947 30.6304 24.6208C30.6775 24.547 30.7095 24.4646 30.7247 24.3783C30.7399 24.2921 30.7379 24.2037 30.719 24.1182L29.543 18.8275C29.9026 18.713 30.2224 18.499 30.4656 18.2103C30.7087 17.9216 30.8652 17.57 30.917 17.1962L31.989 9.10819C32.0141 8.91886 31.9984 8.72635 31.9428 8.54362C31.8873 8.36089 31.7932 8.19218 31.667 8.04886Z" fill="#50C889"/>
<path d="M11.053 18.4142C11.1783 18.2534 11.265 18.0659 11.3063 17.8663C11.3475 17.6666 11.3423 17.4602 11.291 17.2629L11.1003 16.5255C10.9911 16.0968 10.7422 15.7167 10.393 15.4451C10.0438 15.1735 9.61407 15.0259 9.17167 15.0255H5.06167L3.337 8.58353C3.26104 8.30083 3.09416 8.05098 2.8621 7.87254C2.63005 7.69411 2.34573 7.59699 2.053 7.59619H1.329C1.13941 7.59681 0.952123 7.63785 0.779647 7.71658C0.607172 7.79532 0.45347 7.90993 0.328799 8.05277C0.204128 8.19561 0.111354 8.3634 0.0566679 8.54494C0.00198155 8.72647 -0.0133596 8.91759 0.0116681 9.10552L1.08367 17.1962C1.13475 17.5702 1.29063 17.9221 1.5333 18.2113C1.77597 18.5004 2.09552 18.715 2.455 18.8302L1.279 24.1182C1.24063 24.2908 1.27242 24.4717 1.36738 24.6209C1.46234 24.7701 1.61268 24.8755 1.78533 24.9139C1.95799 24.9522 2.13882 24.9204 2.28803 24.8255C2.43725 24.7305 2.54263 24.5802 2.581 24.4075L3.79967 18.9295H8.58367L9.951 24.4242C9.98707 24.5688 10.0706 24.6972 10.1881 24.7888C10.3057 24.8804 10.4506 24.9299 10.5997 24.9295C10.6541 24.9297 10.7083 24.923 10.761 24.9095C10.846 24.8884 10.9259 24.8507 10.9964 24.7987C11.0668 24.7466 11.1262 24.6812 11.1714 24.6062C11.2165 24.5312 11.2464 24.448 11.2594 24.3614C11.2724 24.2748 11.2682 24.1865 11.247 24.1015L9.95634 18.9295H10.003C10.2058 18.93 10.4061 18.8838 10.5882 18.7944C10.7703 18.7051 10.9293 18.575 11.053 18.4142Z" fill="#50C889"/>
</svg>
