<svg width="32" height="33" viewBox="0 0 32 33" fill="none" xmlns="http://www.w3.org/2000/svg">
<g clip-path="url(#clip0_91_18801)">
<path d="M10.1653 32.129C10.6965 32.129 11.2277 31.8191 11.4933 31.2879C11.5376 31.2436 13.928 26.33 14.6363 24.8692C14.9019 24.2937 15.0789 23.5411 15.256 22.7001C14.7691 22.2574 14.2821 21.8147 13.8394 21.5491C13.7066 21.4606 13.6181 21.372 13.4853 21.2835C13.1754 21.0622 12.8656 20.8408 12.5557 20.6195C12.4229 21.6819 12.2458 23.0542 12.0245 23.5411C11.3162 25.002 8.92579 29.9156 8.88152 29.9599C8.52738 30.7124 8.83725 31.5978 9.54553 31.9519C9.72259 32.0847 9.94393 32.129 10.1653 32.129Z" fill="#659CE0"/>
<path d="M24.1523 16.4587C23.2227 15.7062 21.7619 14.4225 21.4077 13.8027C21.3192 13.6699 21.1864 13.36 21.0536 13.0502C20.3896 11.6336 19.1944 9.06612 16.4941 9.06612C16.4941 9.06612 15.0332 9.02185 14.5906 9.02185C11.5804 9.02185 9.58838 11.7222 9.1457 12.6518C8.70303 13.5814 7.64062 16.6801 7.46355 17.2998C7.28648 17.9196 7.64062 18.5393 8.26036 18.7164C8.3489 18.7606 8.4817 18.7606 8.57023 18.7606C9.05717 18.7606 9.54411 18.4065 9.67691 17.9196C9.85398 17.2998 10.8279 14.3782 11.182 13.6256C11.2705 13.4043 11.6247 12.8731 12.1559 12.3862C11.6247 14.5553 11.846 17.4769 11.9345 18.7164C12.0231 19.5132 13.3954 20.3543 14.2364 20.8855C15.5645 21.8151 17.5565 23.8071 17.9992 24.7367C18.309 25.445 19.6813 29.3848 20.3896 31.1112C20.6109 31.6867 21.1864 32.0408 21.7619 32.0408C21.9389 32.0408 22.116 31.9965 22.2931 31.9523C23.0456 31.6424 23.444 30.8013 23.1342 30.0488C23.0899 29.916 21.1421 24.5597 20.6995 23.5858C20.3453 22.7447 18.8402 20.9297 17.8664 19.8673L17.8221 19.8231C17.8221 19.2919 17.8221 15.5734 18.3976 12.9616C18.5746 13.3158 18.796 13.6699 18.973 14.1126C19.1501 14.511 19.2829 14.8209 19.46 15.0865C20.1682 16.2374 22.2931 17.9638 22.7357 18.2737C22.9571 18.4508 23.2227 18.5393 23.444 18.5393C23.7982 18.5393 24.108 18.4065 24.3294 18.0966C24.7278 17.6097 24.6392 16.8572 24.1523 16.4587Z" fill="#659CE0"/>
<path d="M15.5586 8.10392C17.319 8.10392 18.7461 6.67682 18.7461 4.9164C18.7461 3.15598 17.319 1.72888 15.5586 1.72888C13.7982 1.72888 12.3711 3.15598 12.3711 4.9164C12.3711 6.67682 13.7982 8.10392 15.5586 8.10392Z" fill="#659CE0"/>
</g>
<defs>
<clipPath id="clip0_91_18801">
<rect width="32" height="32" fill="white" transform="translate(0 0.929443)"/>
</clipPath>
</defs>
</svg>
